<svg width="20" height="16" viewBox="0 0 20 16" fill="none" xmlns="http://www.w3.org/2000/svg">
<path d="M6.33325 15.3333C4.66057 15.3342 3.19934 14.2029 2.78117 12.5833H0.833252V10.75H2.78209C3.25842 8.90516 5.06836 7.73256 6.94676 8.05185C8.82516 8.37114 10.146 10.0759 9.98604 11.9745C9.82607 13.8731 8.2386 15.3328 6.33325 15.3333ZM6.33325 9.83333C5.3317 9.83435 4.51632 10.6389 4.50196 11.6404C4.48761 12.6418 5.2796 13.4695 6.28072 13.4992C7.28183 13.5289 8.12151 12.7497 8.16658 11.7492V12.1158V11.6667C8.16658 10.6541 7.34577 9.83333 6.33325 9.83333ZM19.1666 12.5833H10.9166V10.75H19.1666V12.5833ZM10.9166 8C9.24424 8.00042 7.7835 6.86924 7.36542 5.25H0.833252V3.41667H7.36542C7.84175 1.57182 9.65169 0.399228 11.5301 0.718515C13.4085 1.0378 14.7293 2.74256 14.5694 4.64118C14.4094 6.5398 12.8219 7.99952 10.9166 8ZM10.9166 2.5C9.91503 2.50101 9.09965 3.30561 9.0853 4.30706C9.07095 5.30851 9.86294 6.13614 10.864 6.16586C11.8652 6.19557 12.7048 5.41637 12.7499 4.41583V4.7825V4.33333C12.7499 3.32081 11.9291 2.5 10.9166 2.5ZM19.1666 5.25H15.4999V3.41667H19.1666V5.25Z" fill="#A5ADD0"/>
</svg>
