<svg width="860" height="159" viewBox="0 0 860 159" fill="none" xmlns="http://www.w3.org/2000/svg">
<mask id="mask0_112_325" style="mask-type:alpha" maskUnits="userSpaceOnUse" x="0" y="0" width="860" height="159">
<rect width="860" height="159" rx="20" fill="#3A446D"/>
</mask>
<g mask="url(#mask0_112_325)">
<path d="M534 101.5C438 114.3 322 122.5 288 166L277.5 182.5H878V40C878 18.5 865.2 65 824 65C772.5 65 692.5 75 636 73C579.5 71 565.5 85.5 559 93C553.8 99 540.167 101.167 534 101.5Z" fill="#0088CC" fill-opacity="0.3"/>
<path d="M579.5 128.5C566.7 130.9 425.5 128.5 376 160L487.5 174L879 166.5V70C852 85.5 841.5 89.5 745.5 87C649.5 84.5 600.5 100.5 588 103C575.5 105.5 575.5 116.5 579.5 119.5C583.5 122.5 595.5 125.5 579.5 128.5Z" fill="#0088CC"/>
</g>
</svg>
