<svg width="393" height="159" viewBox="0 0 393 159" fill="none" xmlns="http://www.w3.org/2000/svg">
<path d="M263.474 -54.4515C254.164 -54.0823 245.941 -60.6781 240.857 -68.4831C235.774 -76.2879 232.964 -85.3961 228.729 -93.7223C221.786 -107.377 210.18 -119.28 195.408 -122.973C180.635 -126.665 162.849 -120.25 156.189 -106.197C149.652 -92.3612 153.472 -72.8923 141.184 -63.9072C132.062 -57.2029 119.455 -60.7868 109.323 -65.3553C99.5619 -69.7501 88.0359 -74.9992 77.2577 -71.0244C66.313 -66.9843 60.7061 -55.5449 61.7301 -44.3443C62.9719 -30.8412 70.7642 -19.7271 78.4773 -9.06975C81.8476 -4.41415 85.0139 0.581116 86.1253 6.22107C90.439 28.4481 54.7135 31.1059 40.9577 35.2402C33.6011 37.4557 25.9615 40.6916 21.2398 47.0275C11.9297 59.5303 20.1368 72.6499 33.1141 77.4359C41.9165 80.7078 51.4681 80.6787 60.2261 83.952C65.6151 85.9568 70.6782 89.3674 73.5683 94.3196C80.9402 106.947 69.2102 118.82 58.8538 124.642C28.176 141.903 -10.3891 165.91 2.58215 207.332C12.7857 239.913 44.525 247.427 74.3523 237.799C91.3395 232.31 107.332 223.318 125.192 220.726C136.812 219.01 149.326 219.473 159.4 226.236C173.758 235.88 174.651 253.748 175.174 269.395C175.653 283.549 178.152 299.035 189.568 308.717C203.636 320.633 228.621 322.219 245.761 317.607C263.278 312.901 273.446 300.231 277.245 283.079C278.835 275.911 280.084 268.504 283.65 262.082C290.586 249.593 306.753 246.371 317.675 255.566C322.535 259.642 326.253 264.913 330.982 269.135C341.803 278.799 358.522 282.239 372.379 277.916C382.605 274.723 391.509 266.18 393.114 255.624C394.327 247.66 391.437 239.63 387.543 232.593C379.7 218.424 362.124 198.419 375.575 182.194C386.562 168.908 408.554 173.143 423.588 173.086C442.748 173.013 463.904 167.577 476.541 152.255C486.594 140.063 489.484 121.521 481.043 108.163C475.234 98.9531 465.168 93.3284 455.189 88.9043C445.21 84.4803 434.685 80.7591 426.211 73.888C417.734 67.0169 411.583 55.9616 414.103 45.3694C419.347 23.2865 450.024 21.1861 452.065 -4.36423C453.518 -22.2255 439.515 -35.2796 422.02 -33.6505C410.923 -32.6224 372.959 -12.8561 370.534 -36.7276C369.858 -43.3668 374.762 -49.159 377.616 -55.248C384.152 -69.2504 378.937 -87.2858 366.649 -96.1044C354.36 -104.923 336.544 -104.402 323.799 -95.8438C316.536 -90.9928 310.95 -84.0132 304.429 -78.1704C293.266 -68.1862 283.744 -50.7011 263.532 -54.4371" fill="#29598A"/>
<path d="M257.517 4.17267C251.598 4.40717 246.37 0.217979 243.138 -4.73924C239.905 -9.69637 238.119 -15.4813 235.427 -20.7695C231.012 -29.4424 223.633 -37.0023 214.241 -39.3475C204.848 -41.6928 193.54 -37.6185 189.305 -28.6928C185.149 -19.9051 187.578 -7.5397 179.765 -1.83294C173.965 2.4252 165.95 0.148941 159.508 -2.75269C153.302 -5.54399 145.973 -8.87789 139.121 -6.35331C132.162 -3.78735 128.597 3.47826 129.248 10.5922C130.038 19.1684 134.992 26.2273 139.896 32.9962C142.039 35.9532 144.052 39.1258 144.759 42.708C147.501 56.8252 124.787 58.5132 116.041 61.1391C111.364 62.5462 106.506 64.6014 103.504 68.6256C97.5849 76.5665 102.803 84.8993 111.054 87.939C116.651 90.0171 122.724 89.9986 128.292 92.0776C131.718 93.3509 134.937 95.5171 136.775 98.6625C141.462 106.683 134.004 114.224 127.419 117.921C107.914 128.884 83.3946 144.132 91.6417 170.441C98.1292 191.134 118.309 195.907 137.273 189.791C148.074 186.305 158.242 180.594 169.597 178.948C176.986 177.858 184.942 178.152 191.347 182.447C200.475 188.572 201.044 199.921 201.376 209.859C201.681 218.849 203.269 228.685 210.528 234.834C219.472 242.402 235.358 243.409 246.255 240.48C257.393 237.491 263.858 229.444 266.273 218.55C267.284 213.998 268.078 209.293 270.345 205.214C274.755 197.282 285.034 195.236 291.979 201.076C295.068 203.664 297.432 207.012 300.439 209.694C307.319 215.832 317.949 218.017 326.76 215.271C333.261 213.243 338.922 207.817 339.943 201.112C340.714 196.055 338.876 190.954 336.401 186.485C331.414 177.485 320.24 164.78 328.791 154.474C335.777 146.036 349.76 148.726 359.318 148.69C371.5 148.643 384.951 145.191 392.986 135.459C399.377 127.716 401.215 115.939 395.849 107.455C392.155 101.605 385.755 98.0329 379.41 95.223C373.065 92.4131 366.374 90.0497 360.986 85.6856C355.596 81.3215 351.686 74.2999 353.288 67.5724C356.622 53.5468 376.127 52.2128 377.424 35.9849C378.348 24.6406 369.445 16.3495 358.322 17.3841C351.266 18.0371 327.128 30.5914 325.586 15.4298C325.157 11.213 328.274 7.53413 330.089 3.66679C334.245 -5.22663 330.929 -16.6815 323.116 -22.2825C315.303 -27.8834 303.976 -27.5523 295.872 -22.117C291.255 -19.036 287.703 -14.603 283.557 -10.892C276.46 -4.55072 270.405 6.55468 257.554 4.18183" fill="#0088CC"/>
</svg>
