<svg width="281" height="196" viewBox="0 0 281 196" fill="none" xmlns="http://www.w3.org/2000/svg">
<path d="M148.261 42.4939C144.744 42.6327 141.637 40.1528 139.716 37.2182C137.795 34.2836 136.734 30.8591 135.134 27.7285C132.51 22.5944 128.125 18.1191 122.544 16.7308C116.962 15.3424 110.241 17.7543 107.725 23.0381C105.255 28.2403 106.699 35.5604 102.056 38.9386C98.6088 41.4594 93.8455 40.1119 90.0174 38.3942C86.3292 36.7418 81.9743 34.7682 77.9019 36.2627C73.7665 37.7817 71.648 42.0828 72.0349 46.2941C72.5041 51.371 75.4483 55.5498 78.3627 59.5569C79.6361 61.3073 80.8324 63.1855 81.2524 65.306C82.8823 73.6631 69.3838 74.6624 64.1863 76.2169C61.4067 77.0499 58.5202 78.2665 56.7362 80.6487C53.2184 85.3496 56.3194 90.2825 61.2227 92.0819C64.5486 93.3121 68.1576 93.3012 71.4666 94.5319C73.5028 95.2857 75.4158 96.568 76.5079 98.43C79.2932 103.178 74.8612 107.642 70.9481 109.831C59.3569 116.321 44.7855 125.347 49.6866 140.921C53.5419 153.171 65.5342 155.997 76.8041 152.376C83.2225 150.313 89.265 146.932 96.0132 145.957C100.404 145.312 105.132 145.486 108.938 148.029C114.363 151.655 114.701 158.373 114.898 164.256C115.079 169.578 116.023 175.401 120.337 179.041C125.652 183.521 135.093 184.117 141.569 182.383C148.187 180.614 152.029 175.85 153.465 169.401C154.065 166.706 154.537 163.921 155.885 161.507C158.505 156.811 164.614 155.599 168.741 159.057C170.577 160.589 171.982 162.571 173.768 164.158C177.857 167.792 184.174 169.085 189.41 167.46C193.274 166.26 196.638 163.047 197.245 159.078C197.703 156.084 196.611 153.065 195.14 150.419C192.176 145.092 185.535 137.57 190.617 131.47C194.769 126.474 203.078 128.067 208.759 128.045C215.998 128.018 223.991 125.974 228.766 120.213C232.565 115.629 233.657 108.657 230.468 103.635C228.272 100.172 224.469 98.0573 220.699 96.3939C216.928 94.7305 212.952 93.3314 209.75 90.7479C206.547 88.1645 204.223 84.0079 205.175 80.0253C207.156 71.7224 218.747 70.9327 219.519 61.3261C220.067 54.6105 214.777 49.7023 208.166 50.3148C203.973 50.7014 189.629 58.1332 188.713 49.1579C188.458 46.6616 190.31 44.4838 191.389 42.1944C193.858 36.9296 191.888 30.1486 187.245 26.8329C182.602 23.5173 175.87 23.7133 171.054 26.9309C168.31 28.7548 166.2 31.379 163.736 33.5759C159.518 37.3298 155.92 43.904 148.283 42.4993" fill="#DAE0F4"/>
<path d="M148.26 42.4068C139.849 42.3687 138.082 32.1385 134.946 26.4083C132.097 21.2088 127.215 16.6273 121.093 15.8352C115.66 15.1301 109.568 17.6318 107.115 22.687C105.894 25.2078 105.578 28.0171 105.109 30.742C104.615 33.6031 103.951 36.8235 101.319 38.5222C98.3333 40.4468 94.4287 39.3742 91.3964 38.1411C88.1937 36.8344 85.1038 35.1466 81.5666 34.9452C75.2085 34.613 70.6915 40.2426 71.2268 46.2941C71.5261 49.6778 72.928 52.8272 74.7146 55.6776C76.5998 58.702 79.4948 61.5357 80.3729 65.0663C81.5939 69.9663 76.6303 72.1442 72.7335 73.2769C68.4388 74.5233 63.8311 74.8856 59.8358 77.0061C57.1742 78.4162 54.847 80.8172 54.4328 83.899C54.0816 86.5179 55.3162 89.033 57.2785 90.7454C59.9731 93.0948 63.4526 93.65 66.8666 94.2703C70.28 94.8911 74.3193 95.8685 75.9907 99.2605C79.1519 105.682 69.1853 109.692 65.0495 112.205C56.2824 117.529 46.7106 125.418 47.8495 136.74C48.3983 142.255 51.0052 147.678 55.5332 151.04C59.7535 154.176 65.2146 155.177 70.3843 154.685C77.2447 154.034 83.2982 150.705 89.7193 148.535C96.0313 146.398 104.845 144.866 110.056 150.212C114.499 154.769 113.528 161.735 114.173 167.496C114.85 173.648 117.383 179.269 123.289 182C128.634 184.469 135.088 184.795 140.796 183.535C146.414 182.296 150.903 178.749 153.145 173.463C155.387 168.176 154.758 159.623 161.833 158.131C165.301 157.402 167.919 159.277 170.156 161.67C172.392 164.063 174.593 166.317 177.729 167.621C183.36 169.962 190.589 169.526 195.051 165.048C196.103 164.023 196.931 162.792 197.48 161.433C198.03 160.074 198.289 158.617 198.242 157.154C198.086 153.746 196.445 150.678 194.675 147.838C191.832 143.273 186.887 136.49 191.757 131.554C195.836 127.427 202.935 128.864 208.127 128.944C214.199 129.039 220.689 127.803 225.722 124.267C230.807 120.692 234.015 114.709 233.216 108.451C232.352 101.645 226.65 97.853 220.782 95.2993C214.915 92.7461 205.794 89.5011 205.964 81.6424C206.082 76.6006 211.033 73.7966 214.548 71.0255C218.439 67.9604 221.109 63.9122 220.423 58.7755C219.699 53.3694 215.119 49.4492 209.661 49.2695C205.8 49.1416 202.023 51.1342 198.327 51.9917C195.018 52.7673 189.195 53.3855 189.634 48.284C189.785 46.5582 190.899 45.0364 191.7 43.5555C192.467 42.1894 192.986 40.7005 193.234 39.1564C193.617 36.4299 193.188 33.6516 191.999 31.164C189.392 25.6079 183.333 22.8367 177.329 23.618C170.644 24.4891 165.889 29.7729 161.665 34.5532C158.139 38.5521 154.349 43.1608 148.346 42.159C147.97 42.0937 147.797 42.6654 148.186 42.7307C150.681 43.1472 153.082 42.9812 155.349 41.7834C157.527 40.6319 159.333 38.876 161.015 37.1093C163.016 35.005 165.351 33.2438 167.409 31.1939C169.95 28.6677 172.623 26.4654 176.19 25.6379C182.502 24.1788 189.063 27.2984 190.992 33.6113C191.451 35.0615 191.617 36.5873 191.481 38.1013C191.344 39.6153 190.908 41.0877 190.196 42.434C188.844 44.9847 187.178 47.4075 188.001 50.421C189.098 54.4171 193.297 54.7601 196.782 54.2159C200.569 53.6305 204.065 51.8937 207.822 51.2676C209.13 51.053 210.469 51.1199 211.748 51.464C213.027 51.8081 214.217 52.4212 215.236 53.2615C216.256 54.1023 217.081 55.1506 217.656 56.3354C218.231 57.5203 218.542 58.8136 218.568 60.1282C218.661 65.3634 214.836 68.3441 211 71.2189C207.432 73.9004 203.837 77.2079 203.953 82.037C204.12 89.1446 210.868 93.198 216.675 95.7022C222.646 98.2805 230.008 101.054 231.188 108.298C232.25 114.804 228.28 120.796 222.682 123.85C217.251 126.82 211.06 127.201 205.004 126.937C199.886 126.714 193.571 126.461 189.949 130.767C180.732 141.776 204.263 153.337 193.772 163.818C189.013 168.582 180.74 168.092 175.496 164.4C172.779 162.495 171.105 159.422 168.292 157.619C167.221 156.942 166.02 156.49 164.765 156.292C163.51 156.094 162.227 156.154 160.996 156.468C159.75 156.799 158.584 157.376 157.567 158.164C156.55 158.951 155.703 159.933 155.077 161.052C153.389 164.025 153.123 167.438 152.176 170.653C150.494 176.37 146.309 180.377 140.45 181.711C134.787 182.999 127.998 182.637 122.888 179.694C116.878 176.234 116.027 169.418 115.795 163.154C115.58 157.739 114.944 151.625 110.405 147.953C105.15 143.698 97.6282 144.234 91.4897 145.971C84.8568 147.847 78.754 151.492 71.891 152.578C66.7591 153.395 61.1889 152.73 56.8858 149.679C52.2538 146.412 49.6716 140.51 49.6578 134.943C49.6578 129.545 52.4569 124.871 56.2247 121.15C60.0497 117.385 64.6736 114.483 69.3059 111.799C73.6965 109.243 80.159 105.026 77.7139 99.0045C74.8106 91.8453 65.8154 93.748 60.1981 90.71C57.5663 89.2864 55.4205 86.5147 56.2766 83.4142C57.1988 80.0744 60.5441 78.3104 63.612 77.3059C69.4595 75.4001 83.0954 74.8559 82.1292 65.8722C81.7753 62.5647 79.5692 59.9489 77.7249 57.3217C75.7904 54.5641 73.9681 51.6378 73.1749 48.3385C72.4153 45.1726 72.7718 41.7017 75.0166 39.1782C77.6153 36.2573 81.4901 36.1538 85.0162 37.2509C90.5319 38.9659 97.3645 43.7842 102.867 39.2653C107.142 35.7264 106.245 29.3374 107.855 24.5653C109.87 18.6064 116.884 15.8297 122.765 17.4277C129.589 19.2842 133.667 25.3657 136.4 31.4063C138.64 36.3498 141.836 42.7525 148.252 42.5674C148.272 42.5638 148.29 42.5532 148.304 42.5375C148.317 42.5219 148.325 42.5021 148.325 42.4816C148.325 42.4612 148.317 42.4414 148.304 42.4257C148.29 42.41 148.272 42.3995 148.252 42.3959L148.26 42.4068Z" fill="#DAE0F4"/>
<path d="M147.713 144.4C147.225 143.584 147.411 144.692 147.595 145.802C147.845 145.421 148.092 145.04 147.713 144.4Z" fill="#73BDE2"/>
<path d="M148.777 143.78C148.571 143.383 148.219 143.08 147.795 142.933C147.628 142.891 147.454 142.883 147.285 142.909C147.115 142.934 146.951 142.992 146.804 143.082C146.658 143.17 146.53 143.287 146.429 143.425C146.328 143.563 146.256 143.72 146.217 143.886C146.063 144.615 146.283 145.408 146.403 146.129C146.468 146.359 146.6 146.565 146.783 146.721C146.966 146.877 147.191 146.976 147.43 147.005C147.67 147.037 147.915 146.998 148.133 146.894C148.352 146.79 148.535 146.626 148.662 146.42C148.867 146.13 149.012 145.803 149.09 145.457C149.191 144.878 149.08 144.284 148.777 143.78C148.609 143.502 148.339 143.301 148.023 143.219C147.708 143.137 147.373 143.181 147.09 143.341C146.812 143.51 146.61 143.779 146.527 144.091C146.444 144.404 146.487 144.736 146.645 145.018C146.714 145.149 146.716 145.143 146.645 144.996C146.665 145.049 146.681 145.104 146.692 145.16C146.672 144.964 146.664 144.928 146.667 145.059C146.703 144.849 146.705 144.811 146.667 144.939C146.609 145.138 146.818 144.667 146.667 144.953C146.623 145.032 146.571 145.108 146.521 145.184L148.78 145.478L148.697 144.977C148.697 144.898 148.673 144.82 148.662 144.741C148.651 144.662 148.662 144.468 148.662 144.762C148.662 144.653 148.635 144.545 148.631 144.436C148.631 144.389 148.631 144.343 148.631 144.297V144.251C148.631 144.388 148.603 144.523 148.549 144.65C148.495 144.776 148.415 144.89 148.316 144.986L147.767 145.301H147.784H147.128L146.65 145.029C146.703 145.084 146.689 145.067 146.617 144.98C146.467 144.787 146.617 144.996 146.634 145.029C146.8 145.31 147.071 145.513 147.387 145.596C147.705 145.678 148.042 145.632 148.324 145.467C148.607 145.303 148.812 145.034 148.895 144.72C148.978 144.405 148.932 144.071 148.766 143.791L148.777 143.78Z" fill="#73BDE2"/>
<path d="M153.453 169.398C154.002 166.921 154.449 164.371 155.563 162.097C152.544 156.283 149.526 150.631 147.476 147.196L147.498 147.768C139.99 153.003 124.996 161.06 115.043 166.842C115.458 171.386 116.69 175.981 120.326 179.038C125.641 183.519 135.081 184.115 141.557 182.381C148.176 180.622 152.018 175.869 153.453 169.398Z" fill="#73BDE2"/>
<path d="M154.642 169.736C155.128 167.523 155.532 165.255 156.426 163.156C156.917 162.005 156.701 161.64 156.152 160.548C155.603 159.457 155.024 158.371 154.453 157.306C152.549 153.702 150.63 150.098 148.556 146.589C147.952 145.568 146.207 145.971 146.254 147.207L146.275 147.779L146.888 146.722C136.597 153.863 125.261 159.517 114.433 165.794C114.245 165.901 114.089 166.055 113.982 166.241C113.874 166.427 113.819 166.639 113.82 166.853C114.208 170.852 115.14 174.897 117.715 178.104C120.086 181.055 123.625 182.797 127.261 183.69C134.254 185.405 142.985 184.847 148.704 180.105C151.876 177.473 153.748 173.678 154.656 169.736C155.01 168.201 152.631 167.558 152.274 169.085C151.574 172.121 150.32 175.036 148.114 177.304C145.908 179.571 142.974 180.897 139.863 181.537C133.77 182.786 125.706 182.258 120.889 177.9C117.77 175.077 116.68 170.885 116.29 166.853L115.676 167.909C121.867 164.324 128.131 160.872 134.336 157.306C137.275 155.613 140.206 153.904 143.089 152.12C144.363 151.331 145.63 150.528 146.877 149.695C147.933 148.99 148.778 148.571 148.726 147.207L146.41 147.825C149.286 152.689 151.898 157.715 154.497 162.726V161.504C153.358 163.929 152.831 166.502 152.261 169.099C151.926 170.621 154.307 171.279 154.642 169.736Z" fill="#73BDE2"/>
<path d="M147.594 145.802C147.343 146.186 147.097 146.567 147.475 147.207C147.964 148.029 147.78 146.915 147.594 145.802Z" fill="#73BDE2"/>
<path d="M146.527 145.184C146.149 145.717 145.994 146.375 146.096 147.019C146.203 147.653 146.695 148.505 147.375 148.669C148.332 148.897 149.038 148.124 149.021 147.229C148.987 146.64 148.907 146.055 148.785 145.478C148.681 144.844 147.855 144.433 147.265 144.621C146.955 144.716 146.693 144.925 146.533 145.205C146.372 145.485 146.326 145.816 146.404 146.129L146.486 146.627C146.486 146.706 146.511 146.785 146.522 146.864C146.533 146.943 146.522 147.152 146.522 146.845C146.522 146.951 146.549 147.06 146.555 147.169C146.552 147.216 146.552 147.263 146.555 147.31V147.348C146.555 147.211 146.584 147.075 146.638 146.948C146.692 146.821 146.771 146.707 146.87 146.611L147.419 146.298H148.056C148.141 146.314 148.604 146.548 148.629 146.706C148.609 146.66 148.582 146.617 148.549 146.578C148.374 146.306 148.604 146.774 148.516 146.515C148.442 146.3 148.516 146.703 148.516 146.573C148.516 146.442 148.448 146.891 148.516 146.657C148.585 146.423 148.401 146.85 148.478 146.731C148.555 146.611 148.601 146.515 148.67 146.409C148.833 146.128 148.877 145.795 148.794 145.482C148.711 145.169 148.506 144.9 148.225 144.735C147.939 144.576 147.602 144.534 147.284 144.618C146.967 144.702 146.696 144.905 146.527 145.184Z" fill="#73BDE2"/>
<path d="M105.815 71.5426L90.9961 92.7351C90.6915 93.1735 90.3675 93.6828 90.4829 94.2051C90.6019 94.5622 90.821 94.8786 91.1141 95.1174C109.469 113.048 128.239 130.549 147.424 147.621C163.763 129.757 178.529 107.756 193.015 88.3851C185.535 80.8938 183.482 77.3549 175.008 66.3106C156.348 64.092 124.156 67.5439 105.815 71.5562" fill="#73BDE2"/>
<path d="M147.425 147.621C157.268 136.86 166.54 124.596 175.528 112.308C167.636 112.949 159.745 113.597 151.857 114.252L140.51 115.194L114.339 117.371C125.231 127.591 136.26 137.674 147.425 147.621Z" fill="#303757"/>
<path d="M152.72 114.303L135.624 115.463C140.125 125.478 143.651 136.917 147.476 147.207C148.275 136.571 150.621 124.768 152.72 114.303Z" fill="#0088CC"/>
<path d="M113.888 116.936L135.624 115.463C132.046 107.501 128.262 99.6404 124.272 91.8801C121.083 99.5382 117.074 109.281 113.888 116.936Z" fill="#0088CC"/>
<path d="M158.252 89.365C156.331 97.6543 154.41 105.971 152.72 114.306L175.169 112.782C170.965 105.002 164.519 95.626 158.252 89.365Z" fill="#0088CC"/>
<path d="M173.301 66.4278C158.208 64.9359 135.339 66.8032 117.661 69.6097L107.255 71.5535C113.109 78.0215 118.969 84.4885 124.837 90.9549L138.681 70.108C139.037 69.5638 139.474 68.981 140.119 68.8992C140.764 68.8179 141.351 69.2886 141.834 69.7353C148.267 75.7227 153.823 82.5749 158.34 90.0917C162.159 84.5198 168.378 74.5535 173.301 66.4278Z" fill="#DAE0F4"/>
<path d="M117.829 69.3131L108.422 71.0693C113.801 72.3115 119.01 74.187 123.94 76.6553C124.257 76.8528 124.623 76.9581 124.997 76.9597C125.296 76.9071 125.578 76.7851 125.82 76.6032L139.689 67.9166C140.051 67.6461 140.477 67.4725 140.927 67.4131C141.533 67.3886 142.068 67.7753 142.554 68.1371C146.679 71.1892 151.246 73.6037 156.099 75.2994C156.664 75.5398 157.276 75.657 157.891 75.6424C158.425 75.5616 158.941 75.3844 159.411 75.1196C163.863 72.9407 168.195 70.5282 172.388 67.8921L173.458 66.1307C158.382 64.6362 135.507 66.4982 117.829 69.3131Z" fill="white"/>
<path d="M105.647 71.4446L94.2288 87.5546L91.3061 91.679C90.6723 92.5719 89.7008 93.5847 90.3021 94.7362C90.8783 95.8247 92.1952 96.8156 93.0707 97.6705C94.4647 99.0316 95.8597 100.393 97.2553 101.754C107.671 111.855 118.235 121.801 128.95 131.592C134.954 137.091 141 142.545 147.086 147.953C147.177 148.039 147.298 148.088 147.424 148.088C147.55 148.088 147.671 148.039 147.761 147.953C160.933 133.525 172.267 117.586 183.709 101.817C186.917 97.3958 190.134 92.9801 193.405 88.6081C193.455 88.5226 193.476 88.4225 193.463 88.324C193.45 88.2255 193.405 88.1338 193.333 88.0639C189.303 83.9693 185.562 79.6031 182.137 74.9971C179.967 72.117 177.953 68.992 175.552 66.286C174.838 65.4692 173.268 65.6574 172.231 65.5672C170.782 65.4447 169.328 65.355 167.873 65.2951C154.046 64.6774 140.078 65.8398 126.373 67.6252C119.442 68.5212 112.496 69.5581 105.685 71.1318C105.137 71.2595 105.367 72.0899 105.919 71.9757C118.806 69.3626 131.854 67.5975 144.976 66.6916C151.735 66.2151 158.519 65.9514 165.283 66.1202C168.096 66.1906 170.906 66.335 173.705 66.6207C174.731 66.727 174.912 66.9585 175.548 67.7941C176.141 68.5671 176.731 69.3423 177.316 70.119C178.399 71.5525 179.479 72.9901 180.557 74.431C184.324 79.4451 188.24 84.2471 192.675 88.6983L192.603 88.1536C180.952 103.793 169.907 119.889 157.591 135.044C154.202 139.214 150.714 143.303 147.086 147.275H147.761C137.383 138.036 127.124 128.668 116.983 119.171C111.947 114.452 106.939 109.705 101.959 104.928C99.4656 102.538 96.9796 100.144 94.5004 97.7466C93.8665 97.1315 93.2353 96.5107 92.5795 95.9065C92.3216 95.6672 92.0552 95.4301 91.7973 95.1908C91.2484 94.668 91.1362 94.7196 91.1142 93.9137C91.0869 92.9639 91.6961 92.3759 92.212 91.6081L93.9436 89.0955L105.965 71.6406C106.108 71.4336 105.771 71.2434 105.628 71.4446H105.647Z" fill="#303757"/>
<path d="M92.3078 95.2858C117.405 89.8687 143.203 89.7628 168.762 89.4986L190.855 89.2697C190.873 89.2666 190.888 89.2572 190.9 89.2437C190.911 89.2301 190.917 89.2129 190.917 89.1952C190.917 89.1775 190.911 89.1603 190.9 89.1467C190.888 89.1326 190.873 89.1238 190.855 89.1201C177.793 89.2588 164.731 89.338 151.672 89.5773C138.834 89.8145 125.981 90.3045 113.218 91.7745C106.186 92.5684 99.1991 93.711 92.2827 95.1987C92.225 95.1987 92.2502 95.2967 92.3078 95.2858Z" fill="#303757"/>
<path d="M107.388 71.295L124.964 90.7016C124.971 90.7084 124.979 90.7136 124.987 90.7162C124.996 90.7193 125.006 90.7204 125.015 90.7188C125.025 90.7178 125.034 90.7141 125.041 90.7089C125.049 90.7032 125.056 90.6964 125.06 90.688C127.678 86.7644 130.291 82.8397 132.9 78.9145L136.805 73.0319C137.406 72.1254 137.998 71.2132 138.611 70.3098C138.846 69.9397 139.1 69.5826 139.373 69.2396L141.33 69.0003C141.815 69.1687 142.428 69.9584 142.806 70.3233C148.86 76.1168 154.112 82.6807 158.426 89.8441C158.434 89.8571 158.445 89.8676 158.459 89.8754C158.472 89.8827 158.487 89.8863 158.503 89.8863C158.518 89.8863 158.533 89.8827 158.546 89.8754C158.56 89.8676 158.572 89.8571 158.579 89.8441C163.839 82.1547 168.826 74.2902 173.541 66.2506C173.549 66.2303 173.55 66.2073 173.542 66.1865C173.535 66.1656 173.52 66.1479 173.501 66.1364C173.482 66.1255 173.459 66.1213 173.437 66.1255C173.415 66.1291 173.395 66.1411 173.381 66.1583C169.562 72.6769 165.56 79.086 161.376 85.3851C160.937 86.044 159.104 89.5449 158.333 89.3463C158.058 89.278 157.235 87.5849 157.065 87.3232C156.546 86.5069 156.019 85.7229 155.476 84.9363C151.77 79.5452 147.508 74.5519 142.76 70.0371C142.128 69.4413 141.281 68.404 140.276 68.5239C139.129 68.6709 138.407 70.3312 137.878 71.1318L131.566 80.6592C130.562 82.1693 129.556 83.68 128.548 85.1917L127.052 87.4598L126.152 88.8208C125.933 89.1555 125.576 90.0291 125.252 90.1819C124.508 90.5358 123.274 88.6629 122.854 88.2L120.658 85.7745L116.268 80.9261L107.486 71.2267C107.44 71.1751 107.36 71.2543 107.41 71.3059L107.388 71.295Z" fill="#303757"/>
<path d="M114.734 114.856L121.306 99.1353C121.828 97.8863 122.352 96.6389 122.879 95.392L123.718 93.3966C124.083 92.5255 124.209 91.924 124.775 93.0374C125.953 95.3623 127.098 97.7034 128.21 100.061C132.875 109.918 137.011 120.006 140.946 130.166C143.141 135.836 145.273 141.531 147.4 147.229C147.407 147.246 147.419 147.261 147.435 147.27C147.451 147.28 147.47 147.284 147.489 147.281C147.507 147.278 147.524 147.269 147.537 147.256C147.55 147.243 147.558 147.225 147.559 147.207C148.416 135.866 150.435 124.651 152.809 113.536C153.964 108.116 155.213 102.718 156.472 97.3249C156.681 96.4403 157.844 89.7028 158.536 89.7628C158.846 89.7841 159.667 90.9195 159.883 91.1483C160.326 91.6164 160.764 92.0882 161.197 92.5636C162.112 93.5764 163.011 94.6091 163.895 95.6615C167.748 100.301 171.134 105.304 174.004 110.598C174.062 110.702 174.221 110.598 174.164 110.506C169.924 102.723 164.585 95.5813 158.308 89.2973C158.298 89.2868 158.286 89.2796 158.272 89.2759C158.258 89.2717 158.244 89.2717 158.23 89.2754C158.216 89.279 158.204 89.2863 158.194 89.2962C158.184 89.3061 158.177 89.3186 158.174 89.3322C154.606 104.637 150.841 119.933 148.674 135.509C148.438 137.212 148.222 138.916 148.026 140.622C147.957 141.229 147.158 146.583 147.436 146.692C147.162 146.589 146.786 145.1 146.684 144.822L145.628 141.988C144.974 140.25 144.32 138.511 143.665 136.773C140.888 129.439 138.04 122.13 135.002 114.897C131.725 107.089 128.235 99.3558 124.338 91.8312C124.306 91.766 124.22 91.7931 124.198 91.8505C121.041 99.5164 117.869 107.175 114.685 114.829C114.685 114.861 114.723 114.875 114.734 114.845V114.856Z" fill="#303757"/>
<path d="M108.06 82.015C106.945 83.8661 105.841 85.7244 104.747 87.5901C104.734 87.612 104.731 87.6385 104.738 87.663C104.745 87.6875 104.76 87.7084 104.783 87.7209C104.805 87.7334 104.831 87.7371 104.856 87.7303C104.881 87.7235 104.902 87.7073 104.915 87.6855C105.994 85.8125 107.059 83.9317 108.109 82.0421C108.11 82.039 108.111 82.0353 108.112 82.0317C108.112 82.028 108.112 82.0244 108.111 82.0207C108.11 82.0176 108.108 82.014 108.106 82.0114C108.104 82.0082 108.101 82.0061 108.098 82.0041C108.095 82.0025 108.091 82.0015 108.087 82.0009C108.084 82.0004 108.08 82.0009 108.076 82.002C108.073 82.0025 108.07 82.0046 108.066 82.0067C108.064 82.0088 108.061 82.0119 108.06 82.015Z" fill="white"/>
<path d="M131.023 87.0923C134.042 82.5978 137.389 77.91 139.351 72.8494C139.42 72.6779 139.154 72.5773 139.061 72.7295C137.576 75.0242 136.377 77.5263 135.043 79.908C133.71 82.2903 132.274 84.6475 130.768 86.9421C130.661 87.1027 130.919 87.2497 131.026 87.0923H131.023Z" fill="white"/>
<path d="M139.824 82.2872L140.849 80.8391C140.883 80.7927 140.809 80.752 140.776 80.7958L139.678 82.2059C139.615 82.2872 139.757 82.3742 139.821 82.2872H139.824Z" fill="white"/>
<path d="M164.946 85.7391C167.838 81.6423 170.966 77.3601 172.962 72.7431C172.994 72.6884 173.003 72.6232 172.987 72.5612C172.971 72.4997 172.93 72.4475 172.875 72.4152C172.82 72.3829 172.753 72.374 172.692 72.3902C172.63 72.4064 172.577 72.446 172.544 72.5007C169.825 76.8049 167.605 81.3807 164.729 85.6113C164.639 85.7474 164.852 85.8673 164.946 85.7391Z" fill="white"/>
<path d="M173.184 83.1884C173.459 82.9028 173.733 82.625 174.008 82.3283C174.027 82.3054 174.037 82.2757 174.036 82.246C174.034 82.2157 174.022 82.1876 174 82.1662C173.979 82.1449 173.95 82.1323 173.92 82.1313C173.89 82.1303 173.86 82.1402 173.837 82.1594C173.544 82.4316 173.269 82.7037 172.986 82.9925C172.86 83.1202 173.061 83.3193 173.184 83.1884Z" fill="white"/>
<path d="M134.991 114.23C138.558 124.61 142.287 134.97 146.601 145.073C146.673 145.241 146.969 145.119 146.9 144.947C142.811 134.758 138.717 124.561 135.037 114.216C135.037 114.186 134.98 114.2 134.991 114.23Z" fill="white"/>
<path d="M95.4726 90.4702C97.5224 88.1484 99.4516 85.7365 101.306 83.2594C103.109 80.8552 105.239 78.2337 106.328 75.4162C106.449 75.1035 105.996 74.9836 105.826 75.2067C104.029 77.5509 102.742 80.3793 101.128 82.8674C99.3919 85.505 97.492 88.0332 95.4395 90.4379C95.4175 90.4592 95.4395 90.4947 95.4726 90.4702Z" fill="white"/>
<path d="M102.124 87.1872C103.641 85.2715 105.016 83.2489 106.24 81.1357C106.252 81.1127 106.255 81.0861 106.247 81.0611C106.24 81.0361 106.223 81.0153 106.201 81.0022C106.178 80.9892 106.151 80.9855 106.126 80.9913C106.1 80.9975 106.078 81.0132 106.064 81.0351C104.853 83.152 103.532 85.2053 102.107 87.1872C102.107 87.1872 102.107 87.2065 102.124 87.1872Z" fill="white"/>
<path d="M104.791 107.294C105.402 104.928 106.146 102.597 107.02 100.314C107.9 98.0193 109.056 95.8633 110.002 93.6036C110.145 93.258 109.583 93.0375 109.401 93.3533C107.02 97.5319 105.683 102.609 104.679 107.264C104.675 107.279 104.677 107.294 104.685 107.307C104.693 107.321 104.705 107.33 104.72 107.335C104.735 107.339 104.751 107.337 104.764 107.329C104.777 107.321 104.787 107.308 104.791 107.294Z" fill="#DAE0F4"/>
<path d="M108.29 106.493C109.646 102.217 111.515 98.0543 113.531 94.0608C113.57 93.9847 113.454 93.9169 113.416 93.9931C111.416 98.0601 109.813 102.236 108.263 106.485C108.263 106.502 108.285 106.51 108.29 106.485V106.493Z" fill="#DAE0F4"/>
<path d="M140.617 90.3999C137.855 95.1227 135.52 100.079 133.639 105.211C133.57 105.396 133.87 105.484 133.938 105.293C135.765 100.161 138.008 95.1837 140.645 90.4103C140.645 90.4103 140.645 90.389 140.628 90.4103L140.617 90.3999Z" fill="#DAE0F4"/>
<path d="M143.757 91.8749C140.977 97.5563 138.11 103.21 135.497 108.971C135.429 109.126 135.653 109.262 135.731 109.107C138.582 103.453 141.189 97.6731 143.872 91.9401C143.908 91.864 143.793 91.7962 143.757 91.8749Z" fill="#DAE0F4"/>
<path d="M173.575 90.5604C172.527 93.0265 171.47 95.4849 170.307 97.9104C170.231 98.0683 170.466 98.2012 170.54 98.0464C171.663 95.5964 172.714 93.1219 173.592 90.5765C173.592 90.563 173.578 90.5604 173.575 90.5765V90.5604Z" fill="#DAE0F4"/>
<path d="M176.103 91.1316L172.958 97.7711C172.898 97.8936 173.087 97.9999 173.139 97.8774L176.119 91.1425C176.119 91.1425 176.119 91.1206 176.103 91.1425V91.1316Z" fill="#DAE0F4"/>
<path d="M93.4719 93.4023C98.0932 92.3405 102.753 91.5482 107.445 90.8731C109.835 90.5301 112.233 90.258 114.64 90.0323C116.918 89.817 119.272 89.7763 121.501 89.2863C121.775 89.2238 121.687 88.8422 121.438 88.8177C119.031 88.5592 116.498 88.9079 114.105 89.1852C111.893 89.4396 109.689 89.7451 107.491 90.1027C102.75 90.9101 98.0607 91.9938 93.4472 93.3476C93.4399 93.3497 93.4336 93.3549 93.4304 93.3617C93.4268 93.3679 93.4257 93.3758 93.4278 93.3831C93.4299 93.3903 93.4352 93.3966 93.442 93.3997C93.4488 93.4034 93.4561 93.4044 93.4635 93.4023H93.4719Z" fill="#DAE0F4"/>
<path d="M129.179 89.1581C138.076 88.4779 146.958 89.0492 155.857 88.7119C156.006 88.7119 156.148 88.6535 156.252 88.5493C156.357 88.4456 156.416 88.3048 156.416 88.1578C156.416 88.0108 156.357 87.8701 156.252 87.7663C156.148 87.6621 156.006 87.6037 155.857 87.6037C146.994 87.3019 137.957 87.9498 129.176 89.1394V89.1581H129.179Z" fill="#DAE0F4"/>
<path d="M163.206 88.4586C167.643 88.0176 171.919 87.5333 176.378 87.71C178.532 87.7971 180.683 87.8106 182.835 87.9498C185.06 88.0937 187.3 88.3606 189.528 88.4231C189.633 88.4205 189.735 88.3809 189.813 88.311C189.892 88.2412 189.943 88.1453 189.957 88.0415C189.972 87.9378 189.948 87.832 189.891 87.7439C189.834 87.6558 189.747 87.5906 189.646 87.5604C185.447 86.5424 180.673 86.3787 176.378 86.7138C172.012 87.0568 167.49 87.5302 163.206 88.4231C163.187 88.4231 163.189 88.4612 163.206 88.4586Z" fill="#DAE0F4"/>
<path d="M124.266 94.9104C123.099 98.4931 121.751 102.016 120.227 105.464C119.51 107.081 118.8 108.704 118.032 110.299C117.291 111.851 116.385 113.367 115.811 114.987C115.636 115.485 116.36 115.711 116.635 115.327C117.694 113.824 118.399 112.028 119.146 110.356C119.848 108.777 120.518 107.187 121.124 105.565C122.409 102.086 123.503 98.5442 124.436 94.9484C124.439 94.9276 124.434 94.9067 124.422 94.889C124.411 94.8718 124.393 94.8593 124.373 94.8535C124.352 94.8478 124.331 94.8499 124.312 94.8588C124.293 94.8676 124.277 94.8827 124.269 94.902L124.266 94.9104Z" fill="#DAE0F4"/>
<path d="M115.631 116.364C115.631 116.345 115.67 116.329 115.684 116.321L115.733 116.288C115.738 116.286 115.741 116.283 115.745 116.28C115.748 116.276 115.75 116.271 115.751 116.266C115.752 116.262 115.752 116.257 115.751 116.252C115.75 116.247 115.747 116.243 115.744 116.239C115.74 116.236 115.736 116.233 115.732 116.232C115.727 116.23 115.722 116.229 115.717 116.231C115.713 116.231 115.708 116.233 115.704 116.236C115.7 116.239 115.697 116.243 115.695 116.247L115.662 116.299C115.662 116.299 115.637 116.348 115.618 116.35C115.599 116.353 115.599 116.35 115.618 116.372C115.637 116.394 115.642 116.372 115.642 116.372L115.631 116.364Z" fill="#DAE0F4"/>
<path d="M159.033 91.1592C158.426 94.6163 157.66 98.0353 156.779 101.438C155.899 104.841 154.708 108.173 153.865 111.578C153.736 112.096 154.452 112.259 154.647 111.793C156.019 108.494 156.779 104.852 157.507 101.37C158.209 97.9999 158.687 94.5808 159.051 91.1618C159.051 91.1618 159.035 91.1482 159.033 91.1618V91.1592Z" fill="#DAE0F4"/>
<path d="M154.115 112.836C154.12 112.836 154.125 112.834 154.129 112.831C154.132 112.828 154.134 112.822 154.134 112.818C154.134 112.812 154.132 112.808 154.129 112.804C154.125 112.8 154.12 112.798 154.115 112.798C154.11 112.798 154.105 112.8 154.101 112.804C154.097 112.808 154.096 112.812 154.096 112.818C154.096 112.822 154.097 112.828 154.101 112.831C154.105 112.834 154.11 112.836 154.115 112.836Z" fill="#DAE0F4"/>
<path d="M119.242 119.563C123.158 123.295 127.11 126.986 131.006 130.724C132.927 132.567 134.818 134.44 136.832 136.168C138.92 137.968 141.165 139.606 143.338 141.308C143.412 141.368 143.519 141.27 143.445 141.199C141.524 139.359 139.683 137.448 137.737 135.643C135.72 133.77 133.555 132.052 131.451 130.277C127.307 126.779 123.289 123.153 119.297 119.489C119.261 119.457 119.206 119.511 119.242 119.544V119.563Z" fill="#0088CC"/>
<path d="M155.052 115.251C153.131 124.686 150.961 134.067 149.309 143.562C149.249 143.894 149.737 144.044 149.827 143.704C152.352 134.377 153.831 124.833 155.071 115.264C155.071 115.264 155.052 115.251 155.052 115.264V115.251Z" fill="#0088CC"/>
<path d="M148.929 145.37L149.044 145.282C149.051 145.275 149.054 145.266 149.054 145.256C149.054 145.247 149.051 145.238 149.044 145.23C149.039 145.222 149.03 145.216 149.019 145.213C149.009 145.211 148.998 145.212 148.989 145.217L148.877 145.304C148.872 145.306 148.867 145.31 148.864 145.313C148.86 145.317 148.857 145.322 148.855 145.327C148.854 145.333 148.853 145.338 148.854 145.343C148.854 145.349 148.856 145.354 148.859 145.359C148.862 145.363 148.865 145.367 148.869 145.37C148.874 145.373 148.879 145.375 148.885 145.376C148.89 145.377 148.895 145.377 148.9 145.376C148.906 145.375 148.911 145.373 148.915 145.37H148.929Z" fill="#0088CC"/>
<path d="M94.752 95.43C96.1984 96.9902 97.6416 98.5551 99.1043 100.099C100.405 101.474 101.67 103.189 103.245 104.258C103.564 104.476 103.86 104.016 103.635 103.755C102.337 102.249 100.699 100.945 99.2443 99.5815C97.79 98.2178 96.2529 96.8046 94.7551 95.4248L94.752 95.43Z" fill="white"/>
<path d="M106.66 107.332C107.867 108.482 108.998 109.708 110.044 111.004C111.089 112.284 111.877 113.832 113.021 115.019C113.296 115.292 113.672 114.949 113.521 114.638C112.843 113.228 111.55 112.028 110.502 110.887C109.317 109.605 108.046 108.415 106.745 107.25C106.688 107.201 106.608 107.28 106.663 107.332H106.66Z" fill="white"/>
<path d="M159.22 89.9832C162.148 93.4783 164.901 97.1127 167.566 100.806C170.15 104.392 172.348 108.233 174.974 111.774C174.998 111.815 175.038 111.844 175.083 111.856C175.129 111.867 175.178 111.861 175.219 111.837C175.259 111.813 175.289 111.774 175.301 111.729C175.312 111.683 175.306 111.635 175.282 111.595C173.476 107.413 170.721 103.621 167.993 99.987C165.312 96.4465 162.383 93.0973 159.229 89.9639C159.227 89.9623 159.226 89.9613 159.224 89.9602C159.223 89.9597 159.22 89.9592 159.218 89.9592C159.217 89.9587 159.215 89.9592 159.213 89.9597C159.211 89.9602 159.209 89.9613 159.208 89.9623C159.207 89.9639 159.205 89.9655 159.205 89.967C159.204 89.9686 159.203 89.9707 159.203 89.9722C159.203 89.9743 159.203 89.9764 159.204 89.978C159.204 89.98 159.205 89.9816 159.207 89.9832H159.22Z" fill="white"/>
<path d="M123.994 90.8867C125.712 94.7608 127.331 98.6777 129.007 102.571C129.9 104.638 130.78 106.71 131.648 108.788C132.397 110.582 133.071 112.493 134.029 114.184C134.063 114.233 134.113 114.27 134.17 114.286C134.227 114.303 134.289 114.3 134.344 114.277C134.399 114.253 134.445 114.212 134.472 114.159C134.5 114.106 134.508 114.046 134.496 113.988C133.524 110.027 131.477 106.118 129.812 102.407C128.042 98.49 126.052 94.6597 124.027 90.8679C124.027 90.846 123.983 90.8679 123.994 90.8867Z" fill="white"/>
<path d="M117.154 117.268C126.281 116.225 135.476 115.803 144.639 115.196C149.139 114.897 153.645 114.627 158.14 114.257C162.827 113.871 167.489 113.283 172.182 112.926C172.261 112.926 172.261 112.795 172.182 112.801C167.517 113.117 162.819 113.198 158.14 113.489C153.547 113.778 148.958 114.157 144.37 114.513C135.276 115.218 126.168 115.852 117.14 117.164C117.082 117.164 117.096 117.273 117.14 117.268H117.154Z" fill="white"/>
<path d="M107.658 72.0326C110.644 74.589 113.062 77.8475 115.647 80.7901C118.328 83.8474 120.96 87.1517 123.948 89.9176C124.252 90.1897 124.829 89.817 124.554 89.4547C122.063 86.1884 119.006 83.2375 116.19 80.2485C113.515 77.4065 110.93 74.2215 107.683 72.0165C107.683 72.0165 107.664 72.0165 107.683 72.0326H107.658Z" fill="white"/>
<path d="M141.101 68.023C143.963 71.5265 146.883 74.9945 149.797 78.46C151.304 80.2511 152.78 82.0724 154.188 83.9344C155.477 85.6249 156.635 87.5656 158.103 89.1065C158.411 89.4276 158.855 89.0195 158.688 88.6603C157.766 86.6836 156.16 84.8487 154.819 83.1285C153.477 81.4083 152.055 79.6714 150.62 77.9887C147.645 74.4962 144.408 71.1835 141.142 67.9683C141.103 67.9333 141.057 67.9849 141.087 68.023H141.101Z" fill="white"/>
<path d="M80.514 39.8833C78.2476 40.014 76.5899 41.9413 76.3047 44.1109C75.9315 46.9502 77.6002 49.5907 79.348 51.676C81.6888 54.4687 84.2215 57.0934 85.5222 60.564C86.7626 63.8689 86.664 67.6419 84.4878 70.5246C84.4684 70.5517 84.5098 70.5736 84.5287 70.5491C87.9919 66.0984 86.4716 60.2346 83.5573 55.9471C81.8152 53.3803 79.3454 51.3193 77.8523 48.5808C76.2056 45.551 76.332 40.6999 80.5197 39.9187C80.5418 39.9187 80.536 39.8806 80.5197 39.8833H80.514Z" fill="white"/>
<path d="M86.6851 72.0326C88.8252 70.6496 90.3455 68.6438 90.8697 66.1416C90.8891 66.0572 90.7575 66.0191 90.7408 66.1036C90.5085 67.314 90.0283 68.4639 89.329 69.482C88.6296 70.5 87.7268 71.3643 86.6768 72.0216L86.6851 72.0326Z" fill="white"/>
<path d="M79.3976 76.7366C76.0743 78.0106 72.5372 78.1633 69.085 78.9609C66.7688 79.5051 62.2686 80.6759 61.7826 83.485C61.2778 86.4089 65.205 87.6203 67.3177 88.1916C71.3351 89.2806 74.598 90.9143 77.0127 94.4094C77.0568 94.4694 77.1553 94.4094 77.1144 94.3495C75.656 92.085 73.582 90.2752 71.1322 89.1284C68.6131 87.9498 63.5363 87.7319 62.4385 84.7371C61.1514 81.1982 68.0805 79.5812 70.4737 79.075C73.4782 78.438 76.5572 77.9699 79.4112 76.7965C79.4442 76.783 79.4306 76.7288 79.3949 76.7423L79.3976 76.7366Z" fill="white"/>
<path d="M80.0391 97.5784C80.2199 98.4082 80.3489 99.2496 80.4973 100.085C80.4973 100.099 80.5193 100.085 80.5167 100.085C80.3599 99.2522 80.1817 98.4192 80.0527 97.581H80.0391V97.5784Z" fill="white"/>
<path d="M89.4464 74.333C88.8781 76.4452 87.7997 78.5418 86.1064 79.9763C83.958 81.792 81.2712 81.5824 78.6588 82.0589C77.3555 82.2981 74.4465 82.6656 73.7796 84.0678C73.1128 85.4696 74.7542 86.4824 75.8242 86.9422C76.0329 87.0292 76.2169 86.7326 76.0056 86.6346C75.4997 86.4517 75.0404 86.1608 74.6609 85.7829C73.637 84.6204 74.8444 83.605 75.9285 83.1749C76.9173 82.7965 77.9375 82.5051 78.9771 82.3039C80.791 81.9525 82.7228 82.0125 84.4298 81.2337C87.2099 79.9654 88.6642 77.1208 89.46 74.3382H89.4464V74.333Z" fill="white"/>
<path d="M80.2754 87.7701C81.1 88.3836 81.6526 89.2896 81.8177 90.2988C81.8177 90.3478 81.9 90.329 81.8917 90.28C81.7076 89.263 81.132 88.357 80.2864 87.7539C80.2864 87.7539 80.267 87.7539 80.2864 87.7701H80.2754Z" fill="white"/>
<path d="M91.2516 57.907C91.8445 55.1521 89.8492 52.7349 88.461 50.5408C87.986 49.784 87.4974 49.0381 87.012 48.2868C86.839 48.0146 86.6497 47.7587 86.4961 47.4701C86.0709 46.7052 86.2214 45.551 87.0093 45.0746C88.3813 44.228 90.2801 45.7987 91.5368 46.3159C91.7155 46.3894 91.8497 46.0818 91.6715 46.0001C90.3818 45.4176 89.0754 44.3069 87.5719 44.4947C86.6303 44.6118 85.7522 45.2025 85.7197 46.2043C85.6976 46.8849 86.0762 47.4483 86.43 47.9955C87.0612 48.9728 87.7365 49.9201 88.4007 50.8729C89.8272 52.9116 91.8414 55.2282 91.2379 57.8935C91.2379 57.8935 91.2516 57.907 91.2516 57.8935V57.907Z" fill="white"/>
<path d="M96.5751 52.1766H96.3444C96.3339 52.1792 96.3239 52.1855 96.3171 52.1944C96.3103 52.2027 96.3066 52.2136 96.3066 52.2246C96.3066 52.2355 96.3103 52.246 96.3171 52.2548C96.3239 52.2632 96.3339 52.2694 96.3444 52.272H96.5751C96.5861 52.2694 96.5955 52.2632 96.6023 52.2548C96.6091 52.246 96.6128 52.2355 96.6128 52.2246C96.6128 52.2136 96.6091 52.2027 96.6023 52.1944C96.5955 52.1855 96.5861 52.1792 96.5751 52.1766Z" fill="white"/>
<path d="M99.5039 44.5492C102.574 45.0228 105.42 43.0873 106.96 40.5475C109.007 37.1719 109.122 33.0913 110.36 29.4272C111.732 25.3902 114.877 22.2406 119.415 22.4175C123.68 22.5836 126.426 25.8774 128.298 29.3428C130.332 33.1049 131.572 37.3217 134.681 40.4141C134.7 40.4333 134.726 40.4442 134.753 40.4444C134.78 40.4447 134.806 40.4342 134.825 40.4155C134.844 40.3967 134.855 40.3711 134.855 40.3443C134.856 40.3175 134.845 40.2917 134.827 40.2725C129.917 34.9506 129.774 24.8484 121.987 22.2433C120.468 21.7546 118.849 21.6573 117.282 21.9607C115.715 22.2641 114.252 22.958 113.03 23.9773C110.165 26.4273 109.377 30.3201 108.639 33.8073C107.654 38.4051 105.587 45.1889 99.5149 44.5301V44.5492H99.5039Z" fill="white"/>
<path d="M97.0612 51.137C102.786 52.0053 108.477 49.4492 111.397 44.4457C112.072 43.2843 112.574 42.0317 112.887 40.7272C113.247 39.2436 113.408 37.6783 114.114 36.2981C115.76 33.0805 119.961 33.0641 122.588 35.0731C122.62 35.0976 122.667 35.0377 122.634 35.0105C120.938 33.6902 118.562 33.075 116.487 33.8454C113.99 34.771 113.348 37.3326 112.829 39.6573C111.199 46.9774 104.764 52.0816 97.0644 51.1097C97.0476 51.1097 97.045 51.1342 97.0644 51.137H97.0612Z" fill="white"/>
<path d="M113.086 54.0225C111.831 55.3997 110.176 56.3573 108.35 56.7639C106.525 57.1528 104.659 56.7639 102.823 57.0167C101.647 57.1549 100.548 57.672 99.6969 58.4893C98.8455 59.3067 98.2888 60.379 98.1116 61.5414C98.0843 61.6936 98.3202 61.7562 98.3422 61.6066C98.4565 60.7762 98.7721 59.9859 99.2628 59.3036C99.753 58.6212 100.404 58.0671 101.157 57.6892C102.84 56.8864 104.769 57.1695 106.569 57.0876C107.807 57.0423 109.023 56.7478 110.143 56.2218C111.263 55.6958 112.263 54.9493 113.084 54.0277L113.086 54.0225Z" fill="white"/>
<path d="M83.0654 93.6635C83.8979 94.6696 84.3934 95.9076 84.4835 97.2056C84.5732 98.5041 84.2534 99.7979 83.5677 100.907C83.5074 101.003 83.6584 101.09 83.716 100.994C84.4154 99.8625 84.731 98.538 84.6156 97.215C84.5008 95.892 83.9614 94.6409 83.0764 93.6442L83.0654 93.6635Z" fill="white"/>
<path d="M79.9352 108.755C76.755 119.146 62.7512 119.884 58.4324 129.466C57.4662 131.645 57.1516 134.052 57.527 136.403C57.9024 138.753 58.9509 140.947 60.5477 142.723C63.9643 146.445 68.8299 147.351 73.6541 146.401C77.0843 145.729 80.4432 144.594 83.8073 143.633C87.443 142.59 91.0902 141.583 94.7207 140.518C94.7453 140.509 94.7658 140.491 94.7784 140.467C94.7904 140.444 94.793 140.417 94.7862 140.392C94.7794 140.366 94.7637 140.344 94.7411 140.33C94.7191 140.316 94.6919 140.31 94.6656 140.314C88.9335 141.85 83.2311 143.488 77.5068 145.045C72.0651 146.526 66.2941 147.308 61.7693 143.23C57.5621 139.438 56.706 133.032 59.6476 128.228C62.2107 124.043 66.7827 121.645 70.7943 119.054C74.7157 116.519 78.6618 113.419 80.0012 108.772C80.0023 108.764 80.0007 108.757 79.9965 108.751C79.9928 108.745 79.9865 108.74 79.9797 108.738C79.9724 108.736 79.9651 108.737 79.9582 108.74C79.9514 108.743 79.9462 108.749 79.9436 108.755H79.9352Z" fill="white"/>
<path d="M101.177 140.407L103.232 141.343C103.26 141.343 103.284 141.313 103.257 141.302L101.183 140.398L101.177 140.407Z" fill="white"/>
<path d="M84.7591 111.701C84.2123 116.003 82.0167 119.932 78.6285 122.671C75.2423 125.369 70.5665 126.21 67.7345 129.621C65.7229 132.047 65.3192 135.27 67.4818 137.736C70.0422 140.657 74.3039 140.755 77.775 139.642C77.8012 139.633 77.8227 139.615 77.8353 139.591C77.8484 139.567 77.851 139.539 77.8437 139.513C77.8363 139.486 77.819 139.464 77.7959 139.45C77.7724 139.436 77.744 139.432 77.7173 139.438C73.6889 140.51 68.0553 140.208 66.6173 135.436C65.3087 131.08 69.6773 128.012 72.9922 126.292C76.1943 124.631 79.169 123.055 81.4028 120.148C83.2817 117.692 84.4487 114.775 84.778 111.709C84.778 111.709 84.7617 111.709 84.7591 111.709V111.701Z" fill="white"/>
<path d="M81.8797 138.175L82.7987 137.946C82.8343 137.946 82.8181 137.881 82.7824 137.891L81.8629 138.117C81.8561 138.12 81.8508 138.125 81.8477 138.132C81.8445 138.139 81.844 138.146 81.8456 138.153C81.8477 138.16 81.8524 138.166 81.8587 138.17C81.865 138.174 81.8723 138.176 81.8797 138.175Z" fill="white"/>
<path d="M101.158 138.705C105.768 138.142 110.469 139.851 113.91 142.879C117.76 146.26 119.226 150.817 119.517 155.787C119.791 160.546 119.321 165.549 121.015 170.106C121.728 172.001 122.855 173.715 124.315 175.127C125.775 176.539 127.531 177.613 129.458 178.273C134.099 179.906 139.357 178.776 143.031 175.575C143.13 175.488 142.987 175.349 142.888 175.431C138.855 178.755 133.078 179.707 128.322 177.336C123.86 175.112 121.396 170.702 120.694 165.933C120.002 161.234 120.565 156.43 119.568 151.777C118.78 147.951 116.639 144.53 113.532 142.133C110.018 139.427 105.577 138.192 101.158 138.692V138.705Z" fill="white"/>
<path d="M147.254 167.89C149.641 164.542 149.916 160.243 152.172 156.835C154.293 153.628 158.112 151.856 161.922 151.772C166.076 151.679 169.105 153.849 171.875 156.702C174.438 159.345 177.009 162.062 180.842 162.653C184.163 163.164 189.377 161.92 189.873 157.971C189.873 157.886 189.736 157.864 189.722 157.949C189.322 160.456 186.671 161.708 184.388 162.1C181.956 162.539 179.447 162.096 177.319 160.851C174.1 158.926 172.05 155.621 169.032 153.443C163.944 149.774 156.247 150.969 152.465 155.959C149.79 159.497 149.721 164.24 147.205 167.86C147.183 167.89 147.232 167.92 147.254 167.89Z" fill="white"/>
<path d="M188.14 148.87C184.298 142.938 181.047 135.259 184.987 128.549C186.908 125.282 190.026 123.548 193.804 123.401C197.157 123.273 200.481 123.649 203.839 123.371C209.602 122.895 215.516 121.267 219.903 117.382C221.986 115.539 223.844 113.117 224.206 110.304C224.58 107.4 222.917 105.383 220.6 103.856C214.465 99.8104 207.055 97.6377 202.097 91.9949C202.031 91.9188 201.924 92.0272 201.987 92.1038C206.103 96.9684 212.08 99.3558 217.513 102.41C220.721 104.212 224.569 106.376 223.767 110.642C223.117 114.099 220.304 116.903 217.456 118.771C212.091 122.288 205.381 123.23 199.07 123.126C195.911 123.08 192.574 122.582 189.584 123.861C187.133 124.912 185.305 127.013 184.219 129.395C181.176 136.078 184.364 143.203 188.121 148.876C188.121 148.889 188.154 148.876 188.146 148.859L188.14 148.87Z" fill="white"/>
<path d="M147.13 48.9564C149.312 49.532 151.589 49.6543 153.821 49.3156C156.052 48.9769 158.188 48.1846 160.096 46.9883C164.432 44.2443 166.542 39.5103 169.569 35.5903C172.596 31.6703 177.826 27.7775 182.856 30.8346C185.409 32.3863 186.097 35.0377 185.107 37.7817C184.171 40.3787 182.576 42.6218 181.981 45.3549C181.004 49.8384 182.557 55.1547 187.343 56.6794C187.403 56.6982 187.428 56.6059 187.37 56.5866C184.761 55.6614 182.958 53.3662 182.332 50.7232C181.586 47.5627 182.503 44.3042 183.888 41.454C184.862 39.4504 186.152 37.3707 186.037 35.0568C185.982 34.2268 185.74 33.4196 185.33 32.6945C184.919 31.9695 184.35 31.3451 183.663 30.8673C180.323 28.4173 176.059 29.2802 172.961 31.6703C168.845 34.8553 166.904 39.837 163.584 43.6862C161.607 45.9981 159.017 47.714 156.106 48.6393C153.196 49.5646 150.083 49.6622 147.12 48.9211C147.094 48.9211 147.084 48.951 147.12 48.9564H147.13Z" fill="white"/>
<path d="M197.707 58.7755C199.875 58.2558 202.04 57.7272 204.211 57.2236C206.096 56.7884 209.455 55.9225 210.182 58.5524C210.703 60.4279 209.438 62.6626 208.426 64.1707C207.202 65.992 205.566 67.2254 203.829 68.5265C201.085 70.5845 199.603 73.538 198.648 76.7611C197.723 79.8538 197.507 83.3193 199.37 86.0982C199.386 86.1196 199.409 86.1341 199.434 86.1394C199.46 86.1446 199.487 86.1399 199.51 86.1269C199.532 86.1138 199.55 86.093 199.558 86.068C199.566 86.0429 199.564 86.0163 199.554 85.9924C197.32 81.9332 198.745 77.1369 200.652 73.2253C201.774 70.9056 203.396 69.5258 205.413 67.9901C206.815 66.9491 208.022 65.672 208.98 64.2171C210.239 62.2654 212.155 58.0702 209.106 56.682C207.814 56.094 206.255 56.4725 204.949 56.8129C202.537 57.4389 200.13 58.1004 197.721 58.7374C197.702 58.7374 197.721 58.7703 197.721 58.7645L197.707 58.7755Z" fill="white"/>
<path d="M172.99 47.7151L174.502 47.3775C174.726 47.6002 174.899 47.8683 175.008 48.1634C175.117 48.4586 175.161 48.7737 175.136 49.0871C175.123 49.4315 175.091 49.7749 175.043 50.1161C174.987 50.7428 174.987 51.3732 175.043 51.9999C175.154 53.1926 175.455 54.3603 175.934 55.4597C176.884 57.5927 178.383 59.4396 180.281 60.8142C185.202 64.435 191.205 64.3996 197.053 64.5085C197.122 64.5085 197.122 64.4079 197.053 64.4053C190.009 64.0295 181.994 63.8606 177.45 57.5589C176.536 56.3114 175.862 54.9076 175.463 53.4184C175.04 51.7848 175.367 50.3012 175.213 48.6815C175.117 47.6715 173.605 46.2968 172.99 47.7124V47.7151Z" fill="white"/>
<path d="M193.12 76.8429C192.931 83.0685 192.793 89.9097 196.517 95.2559C198.103 97.5397 200.249 99.3855 202.604 100.861C203.94 101.688 205.341 102.407 206.794 103.012C208.35 103.668 209.988 104.139 211.023 105.562C211.058 105.611 211.141 105.562 211.108 105.513C209.705 103.393 206.777 102.764 204.629 101.645C201.942 100.249 199.415 98.4602 197.494 96.1082C193.062 90.6854 193.049 83.4767 193.169 76.8429C193.169 76.8377 193.167 76.833 193.164 76.8293C193.16 76.8257 193.155 76.8236 193.15 76.8236C193.145 76.8236 193.14 76.8257 193.136 76.8293C193.133 76.833 193.131 76.8377 193.131 76.8429H193.12Z" fill="white"/>
<path d="M214.024 110.326C214.41 111.799 214.237 113.361 213.539 114.715C212.841 116.07 211.666 117.124 210.236 117.676C210.094 117.731 210.157 117.965 210.303 117.908C211.768 117.325 212.966 116.229 213.669 114.826C214.372 113.425 214.532 111.815 214.117 110.304C214.112 110.294 214.103 110.287 214.093 110.282C214.083 110.278 214.071 110.277 214.06 110.279C214.049 110.282 214.04 110.289 214.033 110.298C214.026 110.307 214.023 110.318 214.024 110.329V110.326Z" fill="white"/>
<path d="M192.357 116.511C188.274 117.241 184.004 118.025 180.604 120.551C177.523 122.848 176.046 126.139 175.934 129.926C175.807 134.249 177.223 138.428 178.727 142.421C179.523 144.534 180.374 146.63 181.055 148.777C181.414 149.896 181.834 151.075 181.878 152.254C181.943 153.947 180.843 156.011 178.832 155.403C178.65 155.349 178.582 155.619 178.755 155.676C179.992 156.111 181.266 155.45 181.858 154.314C182.698 152.708 182.051 150.743 181.562 149.142C180.206 144.697 178.162 140.469 177.053 135.948C175.887 131.189 175.78 125.565 179.501 121.855C182.907 118.463 187.819 117.499 192.377 116.606C192.431 116.606 192.407 116.514 192.352 116.525L192.357 116.511Z" fill="white"/>
<path d="M99.171 133.653C101.274 132.513 103.616 131.873 106.01 131.782C108.406 131.691 110.789 132.152 112.974 133.13C117.002 134.981 119.859 138.591 121.755 142.489C123.832 146.785 124.727 151.508 125.66 156.149C126.431 160.004 126.915 164.988 129.721 168.026C131.706 170.177 135.827 170.849 137.419 167.877C137.433 167.854 137.437 167.826 137.43 167.8C137.423 167.774 137.406 167.751 137.383 167.738C137.36 167.724 137.332 167.72 137.306 167.727C137.28 167.733 137.257 167.75 137.243 167.773C136.146 169.526 133.827 169.834 131.997 169.134C129.721 168.255 128.539 165.805 127.839 163.646C126.377 159.155 125.828 154.426 124.672 149.853C122.875 142.699 119.244 134.881 111.638 132.379C109.582 131.713 107.409 131.476 105.256 131.682C103.103 131.889 101.016 132.535 99.127 133.579C99.0777 133.607 99.127 133.68 99.171 133.653Z" fill="white"/>
<path d="M143.234 161.67C146.118 155.254 149.449 148.045 156.383 145.116C162.572 142.503 169.575 145.048 173.274 150.411C173.444 150.659 173.836 150.438 173.683 150.177C170.494 144.781 163.159 142.345 157.3 144.46C149.792 147.163 146.186 154.919 143.209 161.664C143.209 161.681 143.225 161.695 143.234 161.678V161.67Z" fill="white"/>
<path d="M90.6228 104.539C93.3673 110.59 92.0692 117.472 88.3287 122.807C87.4532 124.046 86.4707 125.206 85.3923 126.276C84.531 127.139 83.4961 127.879 82.7883 128.878C81.9076 130.119 81.7975 132.115 83.4772 132.716C83.5595 132.746 83.6172 132.613 83.5375 132.578C81.1883 131.554 82.9257 129.071 84.0864 128.021C85.0751 127.165 86.0162 126.256 86.9048 125.298C88.5703 123.43 89.9182 121.306 90.8944 119.007C92.832 114.379 92.8509 109.038 90.6862 104.503C90.6668 104.465 90.6092 104.503 90.6286 104.539H90.6228Z" fill="white"/>
<path d="M88.2623 132.809L89.3355 132.055C89.412 132.001 89.3355 131.875 89.2616 131.93L88.1937 132.695C88.1224 132.744 88.1937 132.861 88.2623 132.809Z" fill="white"/>
<path d="M102.718 128.121C108.114 125.301 114.748 126.562 119.482 130.114C124.216 133.667 127.342 139.135 129.309 144.591C129.34 144.67 129.468 144.637 129.441 144.555C127.427 138.7 124.479 132.997 119.164 129.458C114.373 126.265 107.891 125.277 102.699 128.097C102.696 128.098 102.694 128.099 102.693 128.102C102.691 128.104 102.689 128.106 102.689 128.108C102.687 128.111 102.688 128.114 102.688 128.116C102.688 128.119 102.689 128.121 102.69 128.124C102.692 128.126 102.693 128.128 102.695 128.13C102.698 128.131 102.7 128.132 102.703 128.133C102.706 128.133 102.708 128.133 102.711 128.133C102.714 128.132 102.716 128.131 102.718 128.13V128.121Z" fill="white"/>
<path d="M130.937 152.031C131.148 153.493 131.4 155.297 132.698 156.239C133.642 156.928 134.934 157.078 135.848 156.277C135.89 156.242 135.829 156.182 135.788 156.217C134.622 157.233 132.94 156.615 132.106 155.496C131.356 154.492 131.145 153.234 130.945 152.028L130.937 152.031Z" fill="white"/>
<path d="M155.738 141.196C157.046 140.046 158.576 139.174 160.236 138.633C161.896 138.091 163.65 137.893 165.39 138.049C166.233 138.126 167.066 138.294 167.873 138.55C168.779 138.842 169.58 139.389 170.474 139.675C171.254 139.925 171.926 139.721 172.222 138.953C172.302 138.749 171.948 138.599 171.86 138.803C171.311 140.026 169.481 138.787 168.705 138.509C168.079 138.291 167.436 138.123 166.784 138.009C165.467 137.767 164.122 137.727 162.794 137.889C160.148 138.218 157.677 139.373 155.738 141.188V141.196Z" fill="white"/>
<path d="M170.282 127.509C171.427 123.467 173.556 119.683 176.775 116.892C180.068 114.042 184.012 112.711 188.341 112.537C191.006 112.422 194.963 111.87 195.455 108.592C195.69 107.003 194.744 105.386 193.994 104.054C193.069 102.454 191.965 100.963 190.702 99.6087C190.644 99.5436 190.548 99.639 190.608 99.7041C193.051 102.274 197.6 108.143 193.278 110.923C191.514 112.06 189.313 111.97 187.296 112.123C185.631 112.241 183.992 112.596 182.428 113.177C176.133 115.545 171.929 121.172 170.271 127.503L170.282 127.509Z" fill="white"/>
<path d="M175.343 64.2609C177.245 66.4388 180.113 67.4375 182.717 68.5374C184.034 69.0816 185.475 69.5258 186.614 70.4072C187.316 70.9577 187.885 71.6562 188.28 72.4527C188.675 73.2492 188.886 74.1234 188.897 75.0106C188.902 75.0528 188.923 75.0914 188.955 75.1196C188.987 75.1477 189.028 75.1634 189.071 75.1634C189.114 75.1634 189.155 75.1477 189.187 75.1196C189.219 75.0914 189.24 75.0528 189.245 75.0106C189.177 67.7096 179.27 68.491 175.368 64.2338C175.352 64.2145 175.327 64.2338 175.343 64.2609Z" fill="white"/>
<path d="M191.977 68.8778C192.674 69.6013 193.189 70.4781 193.482 71.4362C193.774 72.3943 193.835 73.4072 193.659 74.3929C193.643 74.4883 193.794 74.529 193.807 74.4336C193.963 73.4312 193.88 72.4058 193.563 71.4409C193.246 70.476 192.704 69.5993 191.982 68.8804L191.977 68.8778Z" fill="white"/>
<path d="M146.76 57.341C150.412 59.1785 154.529 59.4151 158.507 58.6692C160.901 58.223 163.532 56.8239 165.985 57.4687C168.239 58.065 169.52 60.2539 170.596 62.1268C170.661 62.2436 170.843 62.1403 170.777 62.0205C169.929 60.4634 168.99 58.7917 167.453 57.8039C165.807 56.742 163.947 57.0089 162.149 57.5312C156.99 59.0257 151.801 59.7962 146.782 57.3165C146.766 57.3165 146.749 57.3326 146.766 57.341H146.76Z" fill="white"/>
<path d="M116.709 52.8329C118.704 50.8783 119.782 47.9329 122.263 46.4874C125.666 44.5056 128.517 47.2877 130.534 49.7895C132.197 51.8502 133.917 53.4752 136.348 54.6053C138.711 55.6937 141.269 56.3854 143.81 56.9432C143.833 56.95 143.858 56.9469 143.879 56.9354C143.9 56.9234 143.916 56.9041 143.922 56.8806C143.929 56.8577 143.926 56.8332 143.914 56.8118C143.902 56.791 143.882 56.7759 143.859 56.7691C140.876 55.9799 137.822 55.2882 135.166 53.6847C133.783 52.8361 132.554 51.7633 131.53 50.5108C130.481 49.2641 129.535 47.8975 128.237 46.8957C126.5 45.5673 124.318 45.0773 122.353 46.2206C119.774 47.726 118.715 50.7559 116.689 52.8058C116.686 52.8095 116.684 52.8142 116.684 52.8194C116.684 52.8246 116.686 52.8293 116.689 52.8329C116.693 52.8366 116.698 52.8387 116.703 52.8387C116.708 52.8387 116.713 52.8366 116.717 52.8329H116.709Z" fill="white"/>
<path d="M97.1 65.845C97.0094 68.344 95.3606 69.3433 93.6699 70.8295C92.6313 71.7417 91.8905 72.9406 91.543 74.273C91.5393 74.3033 91.5461 74.3335 91.5629 74.359C91.5797 74.3846 91.6053 74.4028 91.6352 74.4106C91.6646 74.419 91.696 74.4159 91.7238 74.4023C91.7511 74.3893 91.7731 74.3663 91.7846 74.3382C92.0667 73.2602 92.5972 72.2625 93.3354 71.4227C94.0049 70.6877 94.8583 70.1628 95.5745 69.4794C96.0715 69.0128 96.4647 68.4488 96.7284 67.8228C96.9926 67.1972 97.1221 66.5232 97.1084 65.845H97.1Z" fill="white"/>
<path d="M99.0476 108.255C99.8056 110.022 99.9975 111.978 99.5965 113.857C99.2646 115.387 98.2082 116.598 97.8402 118.085C97.0722 121.177 100.445 121.005 102.456 121.297C102.571 121.313 102.624 121.142 102.506 121.123C101.957 121.035 101.408 121.016 100.859 120.973C100.442 120.956 100.027 120.9 99.6211 120.804C98.5071 120.494 98.0106 119.506 98.0845 118.376C98.1642 117.162 99.2452 115.961 99.6022 114.78C100.23 112.611 100.046 110.291 99.0832 108.246C99.0832 108.23 99.0507 108.246 99.056 108.246L99.0476 108.255Z" fill="white"/>
<path d="M109.515 121.242C110.736 121.115 111.965 121.066 113.193 121.095C113.248 121.095 113.248 121.011 113.193 121.011C111.965 120.981 110.736 121.033 109.515 121.166C109.466 121.166 109.466 121.248 109.515 121.242Z" fill="white"/>
<path d="M131.754 140.486L131 139.125L131.754 140.486Z" fill="white"/>
<path d="M129.574 135.757C132.667 137.715 132.472 141.229 133.712 144.25C134.346 145.789 135.935 147.27 137.617 146.134C137.682 146.093 137.728 146.028 137.747 145.954C137.765 145.879 137.753 145.801 137.714 145.735C137.675 145.669 137.611 145.62 137.538 145.599C137.463 145.578 137.383 145.587 137.315 145.622C134.335 147.31 133.293 141.087 132.628 139.413C132.019 137.881 131.111 136.484 129.594 135.725C129.589 135.723 129.584 135.723 129.58 135.724C129.575 135.725 129.572 135.729 129.569 135.733C129.567 135.736 129.566 135.741 129.567 135.746C129.568 135.75 129.57 135.755 129.574 135.757Z" fill="white"/>
<path d="M163.743 132.687C164.003 132.831 164.305 132.88 164.597 132.826C164.889 132.772 165.153 132.619 165.343 132.393C165.922 131.766 165.856 130.797 165.798 130.013C165.798 129.866 165.554 129.869 165.568 130.013C165.62 130.623 165.68 131.263 165.444 131.843C165.17 132.491 164.451 133.002 163.748 132.678L163.743 132.687Z" fill="white"/>
<path d="M88.5957 86.9995C87.5939 83.104 92.6241 80.9532 95.1735 79.0209C97.2039 77.4773 99.0645 75.5471 99.778 73.0538C99.788 73.0037 99.7785 72.9521 99.7518 72.9094C99.7251 72.8661 99.6831 72.8343 99.6339 72.8208C99.5846 72.8072 99.5322 72.8119 99.4865 72.8349C99.4409 72.8578 99.4063 72.8974 99.3885 72.9448C97.9887 76.6198 94.6162 78.6012 91.6254 80.8907C89.8854 82.2246 87.0261 84.5605 88.4966 87.0402C88.504 87.0506 88.5144 87.0579 88.5265 87.061C88.5386 87.0647 88.5511 87.0636 88.5627 87.0589C88.5742 87.0542 88.5836 87.0459 88.5894 87.035C88.5957 87.024 88.5978 87.0115 88.5957 86.9995Z" fill="white"/>
<path d="M101.547 70.5819C102.051 68.8096 102.691 66.9721 103.906 65.5427C105.262 63.9476 106.996 63.4905 109.043 63.6239C110.921 63.7464 112.493 63.8418 114.258 63.0792C116.115 62.2816 117.808 61.0624 119.493 59.9625C121.301 58.7839 123.17 57.1856 125.456 57.2404C127.742 57.2946 129.726 58.4763 131.617 59.595C133.241 60.5557 134.855 61.3887 136.694 61.8651C138.532 62.3416 140.508 62.5376 142.431 62.72C142.536 62.72 142.536 62.5678 142.431 62.5595C140.055 62.328 137.626 62.0992 135.368 61.2771C133.11 60.4551 131.197 58.8787 129.007 57.8555C127.487 57.1424 125.763 56.6633 124.067 56.998C122.147 57.3764 120.415 58.7729 118.788 59.7717C116.867 60.956 114.927 62.4943 112.693 63.0385C110.594 63.5582 108.369 62.7174 106.313 63.4441C103.382 64.4814 102.178 67.8431 101.48 70.5684C101.48 70.5981 101.519 70.6116 101.527 70.5684L101.547 70.5819Z" fill="white"/>
<path d="M151.848 62.6575L152.155 62.5047C152.287 62.437 152.171 62.2326 152.037 62.3061L151.732 62.4589C151.598 62.524 151.716 62.731 151.848 62.6575Z" fill="white"/>
<path d="M111.695 67.8598L116.542 66.3976C118.339 65.8534 120.013 65.2544 121.901 65.7689C121.919 65.7742 121.939 65.7715 121.956 65.7622C121.973 65.7528 121.985 65.7371 121.99 65.7184C121.996 65.7001 121.993 65.6803 121.983 65.6636C121.974 65.6475 121.958 65.635 121.939 65.6303C120.376 65.2164 119.055 65.5104 117.533 65.9811C115.579 66.5821 113.627 67.1863 111.679 67.7941C111.638 67.7941 111.655 67.8733 111.695 67.8598Z" fill="white"/>
<path d="M79.4978 32.1331C83.0187 37.2263 86.4709 42.3877 89.7941 47.6116C93.1174 52.8355 96.1276 58.3017 99.5002 63.504C100.148 64.5002 101.638 63.6291 101.1 62.5756C98.2624 57.0198 94.6073 51.714 91.0591 46.5826C87.5409 41.5002 83.8417 36.5921 79.9067 31.8173C79.7201 31.5941 79.3305 31.8908 79.4978 32.1331Z" fill="#73BDE2"/>
<path d="M113.407 11.8852C114.472 19.3223 115.619 26.7758 117.086 34.1476C117.8 37.7409 118.538 41.3315 119.345 44.9085C119.759 46.7378 120.182 48.5653 120.616 50.3911C121.036 52.174 121.31 54.1069 122.128 55.7568C122.498 56.4996 123.725 56.1404 123.692 55.3345C123.62 53.5815 122.979 51.8338 122.542 50.1433C122.076 48.3285 121.618 46.5137 121.17 44.6989C120.273 41.0566 119.375 37.4169 118.527 33.7637C116.832 26.4655 115.114 19.1835 113.588 11.8444C113.563 11.7219 113.385 11.7763 113.402 11.8961L113.407 11.8852Z" fill="#73BDE2"/>
<path d="M70.6984 66.5202C73.3464 68.6517 75.975 70.8134 78.634 72.9339C79.8524 73.9056 81.0545 74.8992 82.2152 75.9282C83.4283 77.0171 84.5041 78.3073 85.7827 79.3201C86.4003 79.8158 87.5584 79.1569 86.9927 78.3948C85.1845 75.9448 82.2319 74.0391 79.7622 72.2803C76.8589 70.2061 73.8098 68.3113 70.83 66.3434C70.7309 66.2778 70.6077 66.4331 70.7036 66.5092L70.6984 66.5202Z" fill="#73BDE2"/>
<path d="M72.2106 89.1962C74.6531 90.073 77.1145 90.906 79.6005 91.6462C81.3185 92.1664 83.9282 93.4404 85.6598 92.463C85.7941 92.3791 85.8937 92.2509 85.9419 92.1013C85.9896 91.9511 85.9823 91.789 85.9209 91.6441C85.8596 91.4992 85.7484 91.3803 85.6074 91.3089C85.4659 91.2375 85.3039 91.2182 85.1492 91.2542C83.9995 91.5758 82.8661 91.238 81.7222 91.0337C80.6627 90.8523 79.6042 90.6547 78.5468 90.4405C76.4356 90.0302 74.3318 89.5767 72.2353 89.0794C72.2279 89.0773 72.2206 89.0768 72.2127 89.0779C72.2054 89.0789 72.198 89.0815 72.1912 89.0851C72.1844 89.0888 72.1787 89.094 72.1739 89.0997C72.1697 89.106 72.1661 89.1128 72.164 89.1201C72.1619 89.1274 72.1619 89.1352 72.1624 89.1425C72.1635 89.1503 72.1661 89.1576 72.1697 89.1639C72.1739 89.1706 72.1787 89.1764 72.1849 89.1811C72.1907 89.1858 72.1981 89.1889 72.2054 89.191L72.2106 89.1962Z" fill="#73BDE2"/>
<path d="M152.833 11.2128C152.265 18.3369 151.678 25.4718 150.811 32.5687C150.388 36.0313 149.961 39.4922 149.529 42.9512C149.307 44.7697 149.065 46.5854 148.824 48.3957C148.582 50.2059 148.176 52.0298 148.289 53.8401C148.293 54.021 148.362 54.194 148.484 54.3285C148.605 54.463 148.771 54.5501 148.952 54.5746C149.132 54.5991 149.315 54.5584 149.468 54.4609C149.622 54.3629 149.735 54.2144 149.787 54.0418C150.336 52.4681 150.438 50.7123 150.646 49.0653C150.871 47.2986 151.061 45.5264 151.25 43.7543C151.639 40.1247 151.942 36.4869 152.158 32.8409C152.581 25.6352 152.924 18.4376 152.948 11.2183C152.948 11.2031 152.942 11.1886 152.932 11.1779C152.921 11.1672 152.906 11.1611 152.891 11.1611C152.876 11.1611 152.861 11.1672 152.85 11.1779C152.839 11.1886 152.833 11.2031 152.833 11.2183V11.2128Z" fill="#73BDE2"/>
<path d="M188.221 17.1201C186.758 20.0982 185.584 23.2315 184.269 26.2777C182.955 29.3238 181.577 32.37 180.219 35.4107C178.896 38.3752 177.56 41.337 176.237 44.3042C175.557 45.8305 174.882 47.3594 174.212 48.8912C173.625 50.2196 172.552 51.8094 172.593 53.285C172.595 53.445 172.644 53.6008 172.734 53.7338C172.825 53.8662 172.953 53.9694 173.101 54.0309C173.25 54.0919 173.414 54.1081 173.573 54.0778C173.731 54.0471 173.877 53.9715 173.993 53.8594C175.109 52.9039 175.565 51.0281 176.141 49.7051C176.774 48.2532 177.394 46.7941 178.002 45.3278C179.278 42.2435 180.491 39.1375 181.663 36.0151C182.804 32.9743 183.88 29.9146 184.955 26.8548C186.097 23.6426 187.354 20.4222 188.229 17.1256C188.229 17.1256 188.215 17.1092 188.21 17.1256L188.221 17.1201Z" fill="#73BDE2"/>
<path d="M204.876 46.1144C202.771 49.2504 201.035 52.6479 198.979 55.8329C196.924 59.0179 194.707 62.1185 192.577 65.2545C191.957 66.1662 193.4 66.9669 194.043 66.1062C196.314 62.9598 198.358 59.6591 200.162 56.2275C201.893 53.0071 203.768 49.6043 204.893 46.1226C204.893 46.1226 204.893 46.1063 204.876 46.1226V46.1144Z" fill="#73BDE2"/>
<path d="M217.052 69.8933C211.838 73.5219 206.695 77.5561 202.538 82.3607C202.083 82.8887 202.813 83.6404 203.315 83.1337C207.802 78.5986 212.148 74.0036 217.066 69.9069C217.066 69.9069 217.066 69.885 217.052 69.9069V69.8933Z" fill="#73BDE2"/>
<path d="M205.012 84.7751H204.323C204.25 84.7751 204.18 84.8038 204.129 84.8549C204.078 84.906 204.049 84.9753 204.049 85.0478C204.049 85.1197 204.078 85.189 204.129 85.2401C204.18 85.2912 204.25 85.3199 204.323 85.3199H205.012C205.085 85.3199 205.154 85.2912 205.206 85.2401C205.257 85.189 205.286 85.1197 205.286 85.0478C205.286 84.9753 205.257 84.906 205.206 84.8549C205.154 84.8038 205.085 84.7751 205.012 84.7751Z" fill="#73BDE2"/>
<path d="M80.2744 106.823C83.1777 106.711 86.1193 107.057 89.0032 106.888C89.0903 106.881 89.171 106.841 89.2297 106.777C89.2884 106.713 89.3209 106.63 89.3209 106.544C89.3209 106.457 89.2884 106.374 89.2297 106.31C89.171 106.247 89.0903 106.207 89.0032 106.199C86.1822 105.87 83.0786 106.368 80.2744 106.709C80.2031 106.709 80.1973 106.825 80.2744 106.823Z" fill="#73BDE2"/>
<path d="M87.4099 122.081C91.2102 121.536 94.978 120.823 98.7432 120.075C99.182 119.987 98.9954 119.32 98.5592 119.41C94.8108 120.178 91.0786 120.989 87.3743 121.95C87.2888 121.972 87.3276 122.092 87.4099 122.081Z" fill="#73BDE2"/>
<path d="M102.091 132.02C104.478 131.396 106.863 130.258 109.119 129.262C109.393 129.139 109.193 128.658 108.91 128.772C106.624 129.698 104.146 130.618 102.05 131.897C102.037 131.906 102.028 131.919 102.023 131.934C102.019 131.949 102.02 131.965 102.026 131.979C102.032 131.993 102.043 132.005 102.056 132.013C102.071 132.02 102.086 132.023 102.102 132.02H102.091Z" fill="#73BDE2"/>
<path d="M118.731 138.703L120.592 137.129C120.759 136.985 120.512 136.737 120.345 136.884L118.529 138.501C118.389 138.624 118.592 138.822 118.731 138.703Z" fill="#73BDE2"/>
<path d="M177.547 134.322C176.762 133.827 176.01 133.266 175.217 132.79C174.854 132.572 174.514 133.152 174.885 133.351C175.708 133.789 176.572 134.148 177.401 134.57C177.434 134.585 177.471 134.586 177.505 134.575C177.539 134.564 177.567 134.541 177.585 134.511C177.603 134.48 177.609 134.444 177.602 134.409C177.595 134.375 177.575 134.344 177.547 134.322Z" fill="#73BDE2"/>
<path d="M188.506 123.962C186.604 122.78 184.771 121.512 182.941 120.232C182.463 119.9 182 120.684 182.483 121.008C184.352 122.252 186.342 123.306 188.423 124.155C188.536 124.204 188.602 124.024 188.506 123.962Z" fill="#73BDE2"/>
<path d="M204.113 110.729C200.867 109.441 197.569 108.279 194.281 107.114C193.749 106.923 193.493 107.8 194.045 107.963C197.382 108.954 200.708 109.978 204.077 110.857C204.095 110.862 204.113 110.859 204.128 110.851C204.144 110.842 204.155 110.828 204.16 110.811C204.164 110.794 204.162 110.775 204.153 110.76C204.145 110.745 204.13 110.734 204.113 110.729Z" fill="#73BDE2"/>
<path d="M216.74 95.1065C211.845 95.5856 206.941 95.866 202.026 96.013C201.491 96.0266 201.491 96.8596 202.026 96.8293C206.965 96.5932 211.884 96.0479 216.754 95.1962C216.806 95.1962 216.795 95.0956 216.74 95.1008V95.1065Z" fill="#73BDE2"/>
<path d="M76.8004 152.385C78.2222 151.927 79.6272 151.405 81.0238 150.86C80.931 150.577 80.769 150.32 80.5525 150.114C80.3355 149.908 80.0702 149.758 79.7808 149.679C79.3929 149.558 78.9819 149.532 78.5813 149.602C77.58 149.78 76.7622 150.4 75.9716 151.007C75.8756 150.259 75.7357 149.45 75.1789 148.941C74.7233 148.527 73.8997 148.503 73.4992 148.9C74.8172 146.611 75.494 144.014 75.4589 141.379C75.4421 140.412 75.3215 139.416 74.8329 138.577C73.9139 136.996 71.8143 136.343 70.0197 136.702C68.2252 137.061 66.6802 138.256 65.4697 139.637C64.5748 140.719 63.7366 141.846 62.9591 143.015C63.0529 142.701 63.0587 142.368 62.9748 142.052C62.8915 141.736 62.7216 141.448 62.4846 141.221C61.6474 140.491 60.1218 140.84 59.6935 141.86C60.1821 140.663 61.0933 139.683 61.7874 138.594C62.6791 137.187 63.2254 135.327 61.8178 133.947C61.4466 133.603 61.0005 133.347 60.5145 133.2C60.0285 133.053 59.5147 133.018 59.013 133.098C56.6722 133.422 55.1713 135.229 53.7993 136.95C55.4502 134.395 56.2203 131.377 55.9944 128.35C55.9121 127.316 55.6599 126.194 54.8311 125.56C54.5301 125.333 54.1778 125.181 53.8046 125.119C53.2137 125.027 52.6087 125.122 52.0759 125.391C51.5428 125.66 51.1088 126.089 50.8355 126.616C48.6649 130.678 47.9432 135.39 49.6857 140.929C53.5382 153.182 65.5306 156.005 76.8004 152.385Z" fill="#303757"/>
<path d="M77.1303 153.566C78.5547 153.101 79.9565 152.583 81.3505 152.042C82.1574 151.729 82.4295 151.021 82.0887 150.242C80.788 147.248 77.3033 148.459 75.3494 149.948L77.1633 150.68C76.8886 148.696 75.0915 146.276 72.877 147.844L74.5672 149.526C76.6118 145.849 78.6533 138.395 73.7195 136.005C68.5053 133.473 64.4853 138.727 61.895 142.402L64.1503 143.347C64.4056 141.776 63.8567 140.162 62.1555 139.718C61.4792 139.548 60.7652 139.607 60.1261 139.884C59.4871 140.162 58.9597 140.643 58.6268 141.251L60.7589 142.487C61.5573 140.731 63.0667 139.386 63.6565 137.524C64.2216 135.749 63.7828 133.852 62.2326 132.714C58.7473 130.158 55.0288 133.473 52.9245 136.092L54.8642 137.576C56.32 135.276 57.1436 132.639 57.2543 129.926C57.3423 127.724 56.9937 124.795 54.4941 124.03C49.0687 122.372 47.5046 131.181 47.4744 134.755C47.3975 143.929 53.3879 152.42 62.5152 154.489C67.3556 155.578 72.4351 155.033 77.1303 153.566C78.6396 153.09 77.9948 150.724 76.4745 151.203C70.2647 153.16 63.064 153.438 57.4383 149.722C50.9429 145.435 48.2756 136.155 51.0664 129.033C51.4479 128.059 51.9501 126.464 53.1792 126.336C54.6503 126.183 54.763 127.991 54.7903 129.031C54.8474 131.615 54.1313 134.157 52.7321 136.337C52.0077 137.489 53.7832 138.926 54.6723 137.821C55.8881 136.307 58.4427 133.06 60.7091 134.663C62.976 136.266 59.3371 139.677 58.6158 141.248C57.9762 142.655 59.9877 143.899 60.7479 142.484C60.9974 142.029 61.9112 141.762 61.7576 142.693C61.5379 144.055 63.1872 144.817 64.0161 143.638C65.7833 141.123 68.6673 136.56 72.4377 138.115C74.2574 138.866 74.293 140.851 74.1803 142.541C74.0288 144.562 73.4291 146.524 72.4241 148.288C71.8752 149.287 73.0526 150.713 74.1116 149.965C74.6029 149.616 74.7266 151.029 74.7701 151.326C74.8744 152.055 75.9995 152.504 76.584 152.058C77.4239 151.418 79.2708 149.924 79.9455 151.473L80.6837 149.673C79.2897 150.218 77.8847 150.732 76.4634 151.198C74.9709 151.704 75.61 154.061 77.1303 153.566Z" fill="#303757"/>
<path d="M232.027 113.353C231.478 112.264 230.814 111.233 229.85 110.498C229.548 110.228 229.16 110.07 228.753 110.052C227.954 110.079 227.471 110.925 227.222 111.685C226.56 113.706 226.437 115.863 226.865 117.946C226.536 117.109 225.938 116.403 225.164 115.937C224.985 115.807 224.763 115.749 224.543 115.771C224.308 115.848 224.112 116.012 223.994 116.228C223.066 117.584 222.59 119.195 222.636 120.834C222.272 120.27 221.702 119.868 221.046 119.71C220.39 119.552 219.698 119.651 219.113 119.987C218.529 120.322 218.098 120.868 217.909 121.511C217.72 122.155 217.789 122.845 218.1 123.439C216.789 122.209 214.297 122.699 213.556 124.329C212.518 121.215 210.263 118.444 207.244 117.097C204.226 115.749 200.472 115.97 197.829 117.943C195.187 119.917 193.935 123.66 195.173 126.709C194.253 125.587 192.429 125.456 191.216 126.257C190.003 127.057 189.413 128.592 189.525 130.033C189.558 130.465 189.63 130.958 189.339 131.279C189.13 131.46 188.882 131.592 188.614 131.663C186.614 132.461 186.013 134.995 186.123 137.129C186.397 142.174 189.062 146.88 192.69 150.428C193.91 151.612 195.225 152.697 196.622 153.672C196.223 152.55 195.728 151.464 195.143 150.425C192.179 145.097 185.538 137.576 190.62 131.475C194.772 126.48 203.081 128.073 208.762 128.051C216.001 128.024 223.994 125.979 228.769 120.219C230.399 118.226 231.517 115.87 232.027 113.353Z" fill="#0088CC"/>
<path d="M233.085 112.735C232.064 110.805 229.394 107.201 227.001 109.599C224.976 111.633 225.185 115.7 225.657 118.261L227.912 117.317C227.273 115.901 225.327 113.653 223.59 114.867C221.9 116.054 221.395 118.923 221.395 120.818L223.694 120.2C222.495 118.61 220.319 117.834 218.481 118.898C216.642 119.963 216.239 122.214 217.032 124.041L218.972 122.557C216.941 120.891 213.774 121.305 212.487 123.695L214.746 123.989C212.825 118.52 207.745 114.265 201.665 115.117C196.097 115.899 191.953 121.547 193.981 127.016L196.045 125.824C193.517 123.175 189.382 124.868 188.487 128.121C188.39 128.483 188.327 128.853 188.298 129.227C188.278 129.48 188.424 130.204 188.298 130.408C188.171 130.612 187.598 130.77 187.37 130.917C187.093 131.1 186.836 131.311 186.602 131.546C185.483 132.681 185.043 134.298 184.906 135.839C184.229 143.562 190.12 150.503 195.995 154.715C196.851 155.327 198.163 154.304 197.809 153.332C196.116 148.674 192.625 144.969 190.841 140.366C190.018 138.248 189.585 135.877 190.592 133.743C191.552 131.712 193.432 130.362 195.553 129.722C199.763 128.451 204.285 129.254 208.599 129.259C213.434 129.259 218.354 128.415 222.734 126.327C227.97 123.831 231.965 119.369 233.219 113.675C233.557 112.139 231.175 111.48 230.837 113.024C228.401 124.098 216.198 127.16 206.256 126.747C201.848 126.562 197.093 126.14 192.99 128.108C188.767 130.125 186.824 134.611 187.845 139.065C189.118 144.613 193.511 148.726 195.427 153.991L197.241 152.608C192.381 149.131 188.106 144.095 187.422 137.981C187.282 136.745 187.258 135.379 187.763 134.211C187.983 133.643 188.388 133.165 188.913 132.85C189.401 132.578 189.933 132.461 190.307 132.003C191.13 130.991 190.523 129.687 190.941 128.549C191.456 127.147 193.136 126.338 194.296 127.555C195.12 128.407 196.794 127.531 196.36 126.363C194.774 122.1 198.006 117.883 202.397 117.48C207.062 117.05 210.904 120.456 212.358 124.637C212.688 125.576 214.085 125.916 214.617 124.928C215.094 124.041 216.362 123.583 217.221 124.286C218.335 125.2 219.718 124.087 219.161 122.802C218.508 121.302 220.577 120.126 221.562 121.441C222.254 122.356 223.865 122.138 223.865 120.82C223.865 119.59 224.21 118.716 224.594 117.592C224.885 117.374 224.913 117.208 224.674 117.094C224.414 116.891 224.49 116.94 224.902 117.241C225.284 117.614 225.586 118.059 225.791 118.55C226.4 119.911 228.283 118.877 228.049 117.608C227.689 115.822 227.784 113.975 228.324 112.234C228.598 111.388 228.708 111.078 229.479 111.81C230.086 112.446 230.583 113.176 230.953 113.971C231.691 115.37 233.823 114.137 233.085 112.735Z" fill="#0088CC"/>
<path d="M53.3659 144.928C53.1357 143.526 54.0888 143.418 56.2251 144.607C56.3347 144.98 56.3573 145.373 56.2912 145.756C56.2692 145.987 56.5654 146.028 56.6917 145.865L58.945 146.104C58.9649 146.167 59.0047 146.221 59.0582 146.26C59.1117 146.299 59.1762 146.32 59.2427 146.32C59.3088 146.32 59.3733 146.299 59.4268 146.26C59.4802 146.221 59.5201 146.167 59.5405 146.104C60.1167 144.365 61.8399 142.465 63.8677 143.488C66.0413 144.577 64.4685 147.122 63.4834 148.445C63.2339 148.78 63.7445 149.074 64.0323 148.857C65.9369 148.916 66.4481 149.543 65.5663 150.735C65.5112 150.793 65.4793 150.869 65.4756 150.949C65.4714 151.029 65.4966 151.107 65.5453 151.171C65.5946 151.234 65.6649 151.278 65.7435 151.295C65.8221 151.312 65.9044 151.301 65.9752 151.263L67.2706 152.118C67.2706 152.197 67.3021 152.272 67.3582 152.327C67.4143 152.383 67.4903 152.414 67.5695 152.414C67.6491 152.414 67.7252 152.383 67.7813 152.327C67.8374 152.272 67.8688 152.197 67.8688 152.118C67.9265 150.817 66.7878 150.15 65.635 150.683L66.0439 151.209C67.5695 149.379 65.5611 146.788 63.5495 148.375L64.0984 148.786C65.4017 147.041 66.8151 143.845 63.917 142.756C61.5379 141.86 59.6254 143.864 58.978 145.941H59.573C58.9502 144.471 57.216 144.24 56.3515 145.65L56.752 145.756C56.7908 144.547 56.2251 143.173 54.8065 143.145C54.5816 143.133 54.3572 143.174 54.1517 143.266C53.9462 143.357 53.7664 143.496 53.6264 143.671C53.4864 143.846 53.391 144.052 53.348 144.271C53.305 144.491 53.3161 144.717 53.3795 144.931C53.3795 144.931 53.4015 144.931 53.3989 144.931L53.3659 144.928Z" fill="#0088CC"/>
<path d="M69.5264 152.902C69.6004 152.849 69.6633 152.783 69.7105 152.705C69.7576 152.628 69.7886 152.542 69.8006 152.453C69.8059 152.435 69.8074 152.417 69.8048 152.399C69.8027 152.381 69.7959 152.364 69.7859 152.348C69.7765 152.333 69.7629 152.32 69.7477 152.311C69.7325 152.301 69.7146 152.295 69.6968 152.292C69.6785 152.29 69.6601 152.292 69.6428 152.297C69.625 152.302 69.6093 152.311 69.5956 152.323C69.582 152.335 69.571 152.35 69.5642 152.367C69.5568 152.384 69.5532 152.402 69.5537 152.42C69.5506 152.481 69.5338 152.541 69.5049 152.596C69.4756 152.65 69.4357 152.698 69.3865 152.736C69.2958 152.812 69.4169 152.97 69.5154 152.902H69.5264Z" fill="#0088CC"/>
<path d="M72.975 151.946C72.7773 151.219 73.7519 150.773 74.0728 151.505C74.1415 151.66 74.3475 151.617 74.4324 151.505C74.7779 151.029 75.0909 150.528 75.4175 150.035C75.5957 149.763 75.1433 149.51 74.9839 149.785C74.6793 150.286 74.358 150.784 74.0728 151.296H74.4324C73.8835 150.378 72.4125 150.934 72.8408 151.984C72.846 152.002 72.8575 152.016 72.8738 152.025C72.8895 152.033 72.9084 152.036 72.9257 152.031C72.943 152.026 72.9582 152.014 72.9666 151.998C72.9755 151.982 72.9776 151.964 72.9724 151.946H72.975Z" fill="#0088CC"/>
<path d="M50.5317 132.376C52.2468 131.56 51.9614 133.707 51.6925 134.222C51.6662 134.267 51.659 134.321 51.6723 134.373C51.6856 134.423 51.7185 134.467 51.7638 134.494C52.4114 134.96 53.7092 136.087 52.5102 136.843C52.1287 137.086 52.5102 137.698 52.8615 137.44C54.2885 136.394 53.2757 134.647 51.9147 134.137L52.0519 134.38C52.233 133.751 52.3593 133 51.8461 132.474C51.673 132.293 51.4421 132.175 51.1922 132.143C50.9424 132.11 50.6888 132.164 50.474 132.295C50.4192 132.327 50.474 132.403 50.5234 132.376H50.5317Z" fill="#0088CC"/>
<path d="M198.473 124.838C198.841 123.613 199.968 121.751 201.568 122.737C202.282 123.172 202.614 123.94 202.831 124.721C202.85 124.782 202.886 124.836 202.935 124.876C202.984 124.918 203.044 124.943 203.107 124.952C203.171 124.959 203.236 124.949 203.294 124.922C203.352 124.895 203.401 124.851 203.434 124.798C203.582 124.308 203.95 124.12 204.532 124.237C205.19 123.807 205.556 123.918 205.63 124.572C205.655 124.651 205.703 124.721 205.767 124.775C205.831 124.828 205.91 124.862 205.993 124.873C206.076 124.884 206.161 124.871 206.237 124.836C206.313 124.801 206.377 124.745 206.422 124.675C206.971 123.798 207.978 123.671 208.821 124.161C209.252 124.411 209.57 123.798 209.2 123.515C208.036 122.625 206.436 123.063 205.673 124.239L206.466 124.343C205.566 122.22 203.813 122.538 202.85 124.468H203.42C202.872 123.398 202.265 122.018 200.822 122.097C199.378 122.176 198.756 123.632 198.432 124.819C198.432 124.823 198.433 124.826 198.436 124.829C198.438 124.832 198.442 124.833 198.445 124.833C198.449 124.833 198.453 124.832 198.455 124.829C198.457 124.826 198.459 124.823 198.459 124.819L198.473 124.838Z" fill="#73BDE2"/>
<path d="M211.602 125.279L211.912 125.135C211.93 125.125 211.946 125.11 211.96 125.093C211.972 125.077 211.982 125.057 211.987 125.037C211.993 125.016 211.994 124.995 211.99 124.974C211.988 124.953 211.981 124.933 211.97 124.915C211.948 124.878 211.912 124.851 211.871 124.84C211.829 124.829 211.785 124.834 211.747 124.855L211.445 125.026C211.411 125.047 211.385 125.081 211.375 125.12C211.365 125.159 211.37 125.201 211.391 125.236C211.412 125.271 211.446 125.296 211.485 125.306C211.524 125.316 211.566 125.31 211.602 125.29V125.279Z" fill="#73BDE2"/>
<path d="M219.55 123.864L221.027 122.748C221.067 122.768 221.111 122.777 221.157 122.776C221.201 122.774 221.245 122.762 221.284 122.74C221.323 122.719 221.356 122.687 221.38 122.65C221.404 122.612 221.419 122.569 221.422 122.525C221.49 121.708 221.614 120.782 222.262 120.189C223.428 119.1 224.457 120.006 225.253 120.886C225.315 120.944 225.394 120.981 225.479 120.991C225.564 121.001 225.65 120.983 225.724 120.94C225.798 120.898 225.855 120.833 225.889 120.754C225.923 120.677 225.929 120.59 225.908 120.507C226.213 119.748 226.669 119.446 227.281 119.598C227.764 119.65 227.753 118.91 227.281 118.852C226.07 118.711 224.753 119.309 225.151 120.714L225.81 120.336C224.937 119.348 223.845 118.561 222.517 119.193C221.241 119.792 220.848 121.237 220.912 122.525L221.244 122.274C220.083 121.885 219.128 122.693 219.432 123.883C219.449 123.954 219.572 123.94 219.564 123.864H219.55Z" fill="#73BDE2"/>
<path d="M228.93 116.282C228.98 116.276 229.026 116.253 229.059 116.216C229.092 116.179 229.11 116.132 229.11 116.082C229.11 116.033 229.092 115.985 229.059 115.949C229.026 115.912 228.98 115.888 228.93 115.882C228.881 115.888 228.835 115.912 228.802 115.949C228.769 115.985 228.751 116.033 228.751 116.082C228.751 116.132 228.769 116.179 228.802 116.216C228.835 116.253 228.881 116.276 228.93 116.282Z" fill="#73BDE2"/>
<path d="M188.869 130.487C189.437 130.509 190.087 130.566 190.54 130.955C190.569 130.983 190.605 131.003 190.644 131.013C190.683 131.023 190.724 131.023 190.764 131.013C190.802 131.003 190.839 130.983 190.867 130.956C190.897 130.927 190.918 130.893 190.93 130.855C191.276 129.766 192.409 129.447 193.427 129.273C193.921 129.191 193.718 128.396 193.219 128.519C192.373 128.72 191.468 129.003 190.914 129.714C190.823 129.828 190.639 130.427 190.521 130.49C190.332 130.604 189.102 130.392 188.875 130.411C188.864 130.411 188.854 130.415 188.847 130.422C188.84 130.429 188.836 130.439 188.836 130.449C188.836 130.459 188.84 130.469 188.847 130.476C188.854 130.483 188.864 130.487 188.875 130.487H188.869Z" fill="#73BDE2"/>
<path d="M190.93 148.59C190.895 148.045 191.273 147.419 191.888 147.471C191.95 147.473 192.011 147.454 192.061 147.417C192.111 147.38 192.147 147.327 192.162 147.267C192.294 146.872 192.453 146.606 192.887 146.502C193.386 146.385 193.161 145.571 192.675 145.745C192.082 145.966 191.534 146.515 191.608 147.193L191.814 146.921C191.046 147.087 190.442 147.858 190.806 148.625C190.815 148.637 190.826 148.647 190.84 148.652C190.854 148.657 190.869 148.658 190.883 148.654C190.897 148.65 190.91 148.642 190.919 148.63C190.928 148.619 190.933 148.605 190.933 148.59H190.93Z" fill="#73BDE2"/>
</svg>
