<svg width="24" height="24" viewBox="0 0 24 24" fill="none" xmlns="http://www.w3.org/2000/svg">
<path d="M12 24C18.6274 24 24 18.6274 24 12C24 5.37258 18.6274 0 12 0C5.37258 0 0 5.37258 0 12C0 18.6274 5.37258 24 12 24Z" fill="#303757"/>
<path d="M9.5689 5.86173C9.59573 5.84969 9.62483 5.84348 9.65427 5.84348H14.3458C14.3752 5.84348 14.4043 5.84969 14.4312 5.86173L17.5912 7.27902C17.6281 7.29552 17.6593 7.32239 17.6812 7.35633L19.4824 10.1497C19.5317 10.2262 19.5258 10.3259 19.4677 10.396L12.1607 19.2147C12.0773 19.3154 11.9228 19.3154 11.8393 19.2147L4.53237 10.396C4.4743 10.3259 4.46834 10.2262 4.51767 10.1497L6.31883 7.35633C6.34073 7.32239 6.37202 7.29552 6.40883 7.27902L9.5689 5.86173Z" fill="#C4C4C4"/>
<mask id="mask0_6_22" style="mask-type:alpha" maskUnits="userSpaceOnUse" x="4" y="5" width="16" height="15">
<path d="M9.56866 5.86173C9.59549 5.84969 9.62459 5.84348 9.65403 5.84348H14.3455C14.375 5.84348 14.4041 5.84969 14.4309 5.86173L17.591 7.27902C17.6278 7.29552 17.6591 7.32239 17.681 7.35633L19.4822 10.1497C19.5315 10.2262 19.5255 10.3259 19.4675 10.396L12.1605 19.2147C12.077 19.3154 11.9225 19.3154 11.8391 19.2147L4.53213 10.396C4.47406 10.3259 4.4681 10.2262 4.51743 10.1497L6.31859 7.35633C6.34049 7.32239 6.37177 7.29552 6.40859 7.27902L9.56866 5.86173Z" fill="#C4C4C4"/>
</mask>
<g mask="url(#mask0_6_22)">
<path d="M19.5652 9.1304H4.43481V19.4087H19.5652V9.1304Z" fill="#47A9F1"/>
<path d="M19.5652 5.84348H4.43481V9.75652H19.5652V5.84348Z" fill="#7EC7FF"/>
<path d="M12.0002 8.66087L14.8697 12.4695H9.13062L12.0002 8.66087Z" fill="#75C1FF"/>
<path d="M12.0002 21.4435L14.8697 12.4696H9.13062L12.0002 21.4435Z" fill="#8DCCFC"/>
<path d="M12.0003 8.66087L6.91333 7.90436L9.13072 12.4696L12.0003 8.66087Z" fill="#BFE2F7"/>
<path d="M4.43481 10.2783L6.91307 7.90436L9.13046 12.4696L4.43481 10.2783Z" fill="#87CBFF"/>
<path d="M4.43481 10.2783L6.91307 7.90435L6.36523 7.30435L4.43481 10.2783Z" fill="#47A9F1"/>
<path d="M12 8.66087L17.0869 7.90436L14.8695 12.4696L12 8.66087Z" fill="#4BAEF7"/>
<path d="M19.5653 10.2783L17.087 7.90436L14.8696 12.4696L19.5653 10.2783Z" fill="#6EBEFF"/>
<path d="M19.5654 10.2783L17.0872 7.90435L17.635 7.30435L19.5654 10.2783Z" fill="#389BE3"/>
</g>
</svg>
