<svg width="90" height="34" viewBox="0 0 90 34" fill="none" xmlns="http://www.w3.org/2000/svg">
<path d="M52.9628 24.2857V13.4834H48.8051V10.5885H60.7149V13.4834H56.5571V24.2857H52.9628Z" fill="white"/>
<path d="M61.0586 17.4274C61.0586 16.0026 61.3367 14.7657 61.894 13.7165C62.4508 12.6545 63.2473 11.832 64.2837 11.2491C65.3195 10.6662 66.5435 10.3748 67.9557 10.3748C69.3801 10.3748 70.6108 10.6662 71.6472 11.2491C72.683 11.832 73.4795 12.6545 74.0369 13.7165C74.6064 14.7657 74.8917 16.0026 74.8917 17.4274C74.8917 18.8392 74.6064 20.0762 74.0369 21.1382C73.4795 22.2003 72.683 23.0293 71.6472 23.6251C70.6108 24.208 69.3801 24.4994 67.9557 24.4994C66.5435 24.4994 65.3195 24.208 64.2837 23.6251C63.2601 23.0293 62.4635 22.2003 61.894 21.1382C61.3367 20.0762 61.0586 18.8392 61.0586 17.4274ZM64.8083 17.4274C64.8083 18.2822 64.9249 19.014 65.158 19.6228C65.3912 20.2316 65.7342 20.6979 66.1877 21.0217C66.654 21.3455 67.243 21.5074 67.9557 21.5074C69.0176 21.5074 69.8142 21.1512 70.3455 20.4388C70.8761 19.7135 71.142 18.7097 71.142 17.4274C71.142 16.5725 71.0255 15.8407 70.7923 15.232C70.5592 14.6232 70.2028 14.1634 69.7237 13.8525C69.2575 13.5287 68.6679 13.3668 67.9557 13.3668C66.8932 13.3668 66.1033 13.723 65.5855 14.4354C65.067 15.1348 64.8083 16.1322 64.8083 17.4274Z" fill="white"/>
<path d="M77.0422 24.2857V10.5885H79.6845L86.6205 19.1954H86.0571V10.5885H89.3794V24.2857H86.7371L79.84 15.6788H80.4034V24.2857H77.0422Z" fill="white"/>
<path d="M17 34C26.3888 34 34 26.3888 34 17C34 7.61116 26.3888 0 17 0C7.61116 0 0 7.61116 0 17C0 26.3888 7.61116 34 17 34Z" fill="#0088CC"/>
<path fill-rule="evenodd" clip-rule="evenodd" d="M12.2696 11.2349L21.8045 11.2348C22.1418 11.2348 22.4789 11.2844 22.8311 11.4486C23.2534 11.6454 23.4773 11.9557 23.6342 12.1851C23.6464 12.203 23.6578 12.2214 23.6684 12.2402C23.8528 12.5685 23.9479 12.923 23.9479 13.3044C23.9479 13.6667 23.8617 14.0615 23.6684 14.4056C23.6666 14.4089 23.6647 14.4121 23.6628 14.4154L17.6388 24.7632C17.506 24.9915 17.2615 25.1314 16.9975 25.1305C16.7334 25.1296 16.4899 24.9878 16.3587 24.7587L10.4454 14.4329C10.4437 14.4301 10.442 14.4274 10.4403 14.4245C10.3049 14.2015 10.0956 13.8566 10.059 13.4116C10.0254 13.0023 10.1174 12.5923 10.323 12.2367C10.5287 11.8811 10.8382 11.5969 11.2106 11.4228C11.6099 11.2363 12.0145 11.2349 12.2696 11.2349ZM16.2609 12.7131H12.2696C12.0074 12.7131 11.9067 12.7292 11.8364 12.7621C11.7391 12.8076 11.6573 12.8823 11.6027 12.9768C11.548 13.0713 11.5233 13.1808 11.5323 13.2905C11.5375 13.3533 11.5631 13.4252 11.7142 13.6744C11.7174 13.6797 11.7205 13.6849 11.7235 13.6902L16.2609 21.6134V12.7131ZM17.7392 12.7131V21.6525L22.3817 13.6777C22.4341 13.5825 22.4696 13.4449 22.4696 13.3044C22.4696 13.1904 22.446 13.0915 22.3932 12.9895C22.3378 12.9097 22.304 12.8675 22.2758 12.8386C22.2516 12.8139 22.2329 12.8007 22.2066 12.7884C22.0968 12.7373 21.9845 12.7131 21.8045 12.7131H17.7392Z" fill="white"/>
</svg>
