<svg width="16" height="14" viewBox="0 0 16 14" fill="none" xmlns="http://www.w3.org/2000/svg">
<path d="M5.08453 0.018257C5.11135 0.00621415 5.14045 0 5.1699 0H9.86139C9.89083 0 9.91993 0.00621415 9.9468 0.018257L13.1068 1.43554C13.1437 1.45204 13.1749 1.47891 13.1968 1.51286L14.998 4.30624C15.0474 4.38274 15.0414 4.48243 14.9833 4.5525L7.67636 13.3713C7.59291 13.472 7.43841 13.472 7.35497 13.3713L0.0479971 4.5525C-0.0100743 4.48243 -0.0160314 4.38274 0.0332972 4.30624L1.83445 1.51286C1.85635 1.47891 1.88764 1.45204 1.92445 1.43554L5.08453 0.018257Z" fill="#C4C4C4"/>
<mask id="mask0_220_581" style="mask-type:alpha" maskUnits="userSpaceOnUse" x="0" y="0" width="16" height="14">
<path d="M5.08453 0.018257C5.11135 0.00621415 5.14045 0 5.1699 0H9.86139C9.89083 0 9.91993 0.00621415 9.9468 0.018257L13.1068 1.43554C13.1437 1.45204 13.1749 1.47891 13.1968 1.51286L14.998 4.30624C15.0474 4.38274 15.0414 4.48243 14.9833 4.5525L7.67636 13.3713C7.59291 13.472 7.43841 13.472 7.35497 13.3713L0.0479971 4.5525C-0.0100743 4.48243 -0.0160314 4.38274 0.0332972 4.30624L1.83445 1.51286C1.85635 1.47891 1.88764 1.45204 1.92445 1.43554L5.08453 0.018257Z" fill="#C4C4C4"/>
</mask>
<g mask="url(#mask0_220_581)">
<path d="M15.0806 3.28693H-0.0498047V13.5652H15.0806V3.28693Z" fill="#47A9F1"/>
<path d="M15.0806 0H-0.0497796V3.91304H15.0806V0Z" fill="#7EC7FF"/>
<path d="M7.51554 2.81739L10.3851 6.62606H4.64605L7.51554 2.81739Z" fill="#75C1FF"/>
<path d="M7.51554 15.6L10.3851 6.62606H4.64605L7.51554 15.6Z" fill="#8DCCFC"/>
<path d="M7.51554 2.81739L2.42871 2.06088L4.64605 6.62606L7.51554 2.81739Z" fill="#BFE2F7"/>
<path d="M-0.0498047 4.43477L2.42871 2.06088L4.64605 6.62606L-0.0498047 4.43477Z" fill="#87CBFF"/>
<path d="M-0.0498047 4.43477L2.42871 2.06088L1.88061 1.46087L-0.0498047 4.43477Z" fill="#47A9F1"/>
<path d="M7.51554 2.81739L12.6023 2.06088L10.3851 6.62606L7.51554 2.81739Z" fill="#4BAEF7"/>
<path d="M15.0807 4.43477L12.6023 2.06088L10.3851 6.62606L15.0807 4.43477Z" fill="#6EBEFF"/>
<path d="M15.0807 4.43477L12.6023 2.06088L13.1503 1.46087L15.0807 4.43477Z" fill="#389BE3"/>
</g>
</svg>
