<svg width="34" height="34" viewBox="0 0 34 34" fill="none" xmlns="http://www.w3.org/2000/svg">
<path d="M17 34C26.3888 34 34 26.3888 34 17C34 7.61116 26.3888 0 17 0C7.61116 0 0 7.61116 0 17C0 26.3888 7.61116 34 17 34Z" fill="#0088CC"/>
<path fill-rule="evenodd" clip-rule="evenodd" d="M12.2696 11.2349L21.8045 11.2348C22.1418 11.2348 22.4789 11.2843 22.8311 11.4486C23.2534 11.6454 23.4773 11.9557 23.6342 12.1851C23.6464 12.203 23.6578 12.2213 23.6684 12.2402C23.8528 12.5685 23.9479 12.923 23.9479 13.3044C23.9479 13.6667 23.8617 14.0615 23.6684 14.4055C23.6666 14.4089 23.6647 14.4121 23.6628 14.4154L17.6388 24.7632C17.506 24.9914 17.2615 25.1314 16.9975 25.1305C16.7334 25.1296 16.4899 24.9878 16.3587 24.7587L10.4454 14.4329C10.4437 14.4301 10.442 14.4273 10.4403 14.4245C10.3049 14.2015 10.0956 13.8566 10.059 13.4116C10.0254 13.0023 10.1174 12.5923 10.323 12.2367C10.5287 11.8811 10.8382 11.5968 11.2106 11.4228C11.6099 11.2363 12.0145 11.2349 12.2696 11.2349ZM16.2609 12.7131H12.2696C12.0074 12.7131 11.9067 12.7292 11.8364 12.7621C11.7391 12.8075 11.6573 12.8823 11.6027 12.9768C11.548 13.0713 11.5233 13.1808 11.5323 13.2905C11.5375 13.3533 11.5631 13.4252 11.7142 13.6744C11.7174 13.6796 11.7205 13.6849 11.7235 13.6902L16.2609 21.6134V12.7131ZM17.7392 12.7131V21.6525L22.3817 13.6776C22.4341 13.5824 22.4696 13.4449 22.4696 13.3044C22.4696 13.1904 22.446 13.0914 22.3932 12.9894C22.3378 12.9097 22.304 12.8675 22.2758 12.8386C22.2516 12.8139 22.2329 12.8007 22.2066 12.7884C22.0968 12.7372 21.9845 12.7131 21.8045 12.7131H17.7392Z" fill="white"/>
</svg>
