<svg width="20" height="20" viewBox="0 0 20 20" fill="none" xmlns="http://www.w3.org/2000/svg">
<path d="M11.8204 20H8.18041C7.71052 20 7.30396 19.673 7.20341 19.214L6.79641 17.33C6.25346 17.0921 5.73863 16.7946 5.26141 16.443L3.42441 17.028C2.97641 17.1709 2.48939 16.9823 2.25441 16.575L0.430407 13.424C0.197995 13.0165 0.278065 12.5025 0.623407 12.185L2.04841 10.885C1.9836 10.2961 1.9836 9.70189 2.04841 9.113L0.623407 7.816C0.277557 7.49837 0.197454 6.98372 0.430407 6.576L2.25041 3.423C2.48539 3.0157 2.97241 2.82714 3.42041 2.97L5.25741 3.555C5.50147 3.37416 5.75554 3.20722 6.01841 3.055C6.27075 2.91269 6.53044 2.78385 6.79641 2.669L7.20441 0.787C7.30448 0.327969 7.7106 0.000494393 8.18041 0H11.8204C12.2902 0.000494393 12.6963 0.327969 12.7964 0.787L13.2084 2.67C13.4892 2.79352 13.7626 2.93308 14.0274 3.088C14.2743 3.23081 14.513 3.38739 14.7424 3.557L16.5804 2.972C17.0281 2.82967 17.5145 3.01816 17.7494 3.425L19.5694 6.578C19.8018 6.98548 19.7217 7.49951 19.3764 7.817L17.9514 9.117C18.0162 9.70589 18.0162 10.3001 17.9514 10.889L19.3764 12.189C19.7217 12.5065 19.8018 13.0205 19.5694 13.428L17.7494 16.581C17.5145 16.9878 17.0281 17.1763 16.5804 17.034L14.7424 16.449C14.5098 16.6203 14.2681 16.7789 14.0184 16.924C13.7562 17.0759 13.4858 17.2131 13.2084 17.335L12.7964 19.214C12.6959 19.6726 12.2899 19.9996 11.8204 20ZM5.62041 14.229L6.44041 14.829C6.62526 14.9652 6.81792 15.0904 7.01741 15.204C7.20511 15.3127 7.39837 15.4115 7.59641 15.5L8.52941 15.909L8.98641 18H11.0164L11.4734 15.908L12.4064 15.499C12.8137 15.3194 13.2003 15.0961 13.5594 14.833L14.3804 14.233L16.4214 14.883L17.4364 13.125L15.8534 11.682L15.9654 10.67C16.0146 10.2274 16.0146 9.78064 15.9654 9.338L15.8534 8.326L17.4374 6.88L16.4214 5.121L14.3804 5.771L13.5594 5.171C13.2002 4.90671 12.8136 4.68175 12.4064 4.5L11.4734 4.091L11.0164 2H8.98641L8.52741 4.092L7.59641 4.5C7.39821 4.58704 7.20492 4.68486 7.01741 4.793C6.81914 4.90633 6.6275 5.03086 6.44341 5.166L5.62241 5.766L3.58241 5.116L2.56541 6.88L4.14841 8.321L4.03641 9.334C3.98721 9.77664 3.98721 10.2234 4.03641 10.666L4.14841 11.678L2.56541 13.121L3.58041 14.879L5.62041 14.229ZM9.99641 14C7.78727 14 5.99641 12.2091 5.99641 10C5.99641 7.79086 7.78727 6 9.99641 6C12.2055 6 13.9964 7.79086 13.9964 10C13.9937 12.208 12.2044 13.9972 9.99641 14ZM9.99641 8C8.9038 8.00111 8.01429 8.87885 7.99864 9.97134C7.98298 11.0638 8.84697 11.9667 9.9391 11.9991C11.0312 12.0315 11.9472 11.1815 11.9964 10.09V10.49V10C11.9964 8.89543 11.101 8 9.99641 8Z" fill="#A5ADD0"/>
</svg>
